%TF.GenerationSoftware,KiCad,Pcbnew,9.0.6-1.fc43*%
%TF.CreationDate,2025-12-11T01:11:35+10:30*%
%TF.ProjectId,fastboot_breakout,66617374-626f-46f7-945f-627265616b6f,1.1*%
%TF.SameCoordinates,Original*%
%TF.FileFunction,Soldermask,Top*%
%TF.FilePolarity,Negative*%
%FSLAX46Y46*%
G04 Gerber Fmt 4.6, Leading zero omitted, Abs format (unit mm)*
G04 Created by KiCad (PCBNEW 9.0.6-1.fc43) date 2025-12-11 01:11:35*
%MOMM*%
%LPD*%
G01*
G04 APERTURE LIST*
G04 Aperture macros list*
%AMRoundRect*
0 Rectangle with rounded corners*
0 $1 Rounding radius*
0 $2 $3 $4 $5 $6 $7 $8 $9 X,Y pos of 4 corners*
0 Add a 4 corners polygon primitive as box body*
4,1,4,$2,$3,$4,$5,$6,$7,$8,$9,$2,$3,0*
0 Add four circle primitives for the rounded corners*
1,1,$1+$1,$2,$3*
1,1,$1+$1,$4,$5*
1,1,$1+$1,$6,$7*
1,1,$1+$1,$8,$9*
0 Add four rect primitives between the rounded corners*
20,1,$1+$1,$2,$3,$4,$5,0*
20,1,$1+$1,$4,$5,$6,$7,0*
20,1,$1+$1,$6,$7,$8,$9,0*
20,1,$1+$1,$8,$9,$2,$3,0*%
%AMFreePoly0*
4,1,6,1.000000,0.000000,0.500000,-0.750000,-0.500000,-0.750000,-0.500000,0.750000,0.500000,0.750000,1.000000,0.000000,1.000000,0.000000,$1*%
%AMFreePoly1*
4,1,6,0.500000,-0.750000,-0.650000,-0.750000,-0.150000,0.000000,-0.650000,0.750000,0.500000,0.750000,0.500000,-0.750000,0.500000,-0.750000,$1*%
G04 Aperture macros list end*
%ADD10RoundRect,0.120000X-0.480000X-0.280000X0.480000X-0.280000X0.480000X0.280000X-0.480000X0.280000X0*%
%ADD11RoundRect,0.195000X0.455000X1.555000X-0.455000X1.555000X-0.455000X-1.555000X0.455000X-1.555000X0*%
%ADD12RoundRect,0.237500X-0.237500X0.250000X-0.237500X-0.250000X0.237500X-0.250000X0.237500X0.250000X0*%
%ADD13RoundRect,0.237500X-0.237500X0.300000X-0.237500X-0.300000X0.237500X-0.300000X0.237500X0.300000X0*%
%ADD14C,1.500000*%
%ADD15FreePoly0,270.000000*%
%ADD16FreePoly1,270.000000*%
%ADD17C,2.000000*%
%ADD18C,0.650000*%
%ADD19RoundRect,0.150000X0.150000X0.425000X-0.150000X0.425000X-0.150000X-0.425000X0.150000X-0.425000X0*%
%ADD20RoundRect,0.075000X0.075000X0.500000X-0.075000X0.500000X-0.075000X-0.500000X0.075000X-0.500000X0*%
%ADD21RoundRect,0.250000X0.840000X0.750000X-0.840000X0.750000X-0.840000X-0.750000X0.840000X-0.750000X0*%
G04 APERTURE END LIST*
%TO.C,JP1*%
G36*
X153342857Y-99746000D02*
G01*
X151842857Y-99746000D01*
X151842857Y-102196000D01*
X153342857Y-102196000D01*
X153342857Y-99746000D01*
G37*
%TD*%
D10*
%TO.C,SW1*%
X140017857Y-99896000D03*
X144167857Y-99896000D03*
X140017857Y-102046000D03*
X144167857Y-102046000D03*
%TD*%
D11*
%TO.C,J1*%
X138592857Y-110721000D03*
X140592857Y-110721000D03*
X142592857Y-110721000D03*
X144592857Y-110721000D03*
X146592857Y-110721000D03*
X148592857Y-110721000D03*
X150592857Y-110721000D03*
X152592857Y-110721000D03*
%TD*%
D12*
%TO.C,R4*%
X147592857Y-95058500D03*
X147592857Y-96883500D03*
%TD*%
D13*
%TO.C,C1*%
X150592857Y-95108500D03*
X150592857Y-96833500D03*
%TD*%
D14*
%TO.C,TP4*%
X145092857Y-104471000D03*
%TD*%
D15*
%TO.C,JP1*%
X152592857Y-100246000D03*
D16*
X152592857Y-101696000D03*
%TD*%
D17*
%TO.C,FID4*%
X138392857Y-105471000D03*
%TD*%
D12*
%TO.C,R3*%
X140592857Y-95058500D03*
X140592857Y-96883500D03*
%TD*%
D18*
%TO.C,J4*%
X148482857Y-91326000D03*
X142702857Y-91326000D03*
D19*
X148792857Y-92401000D03*
X147992857Y-92401000D03*
D20*
X146842857Y-92401000D03*
X145842857Y-92401000D03*
X145342857Y-92401000D03*
X144342857Y-92401000D03*
D19*
X143192857Y-92401000D03*
X142392857Y-92401000D03*
X142392857Y-92401000D03*
X143192857Y-92401000D03*
D20*
X143842857Y-92401000D03*
X144842857Y-92401000D03*
X146342857Y-92401000D03*
X147342857Y-92401000D03*
D19*
X147992857Y-92401000D03*
X148792857Y-92401000D03*
D21*
X150702857Y-91826000D03*
X150702857Y-87896000D03*
X140482857Y-91826000D03*
X140482857Y-87896000D03*
%TD*%
D14*
%TO.C,TP3*%
X147592857Y-103471000D03*
%TD*%
D12*
%TO.C,R2*%
X143842857Y-95058500D03*
X143842857Y-96883500D03*
%TD*%
D14*
%TO.C,TP1*%
X150092857Y-103471000D03*
%TD*%
D17*
%TO.C,FID3*%
X152792857Y-95471000D03*
%TD*%
D14*
%TO.C,TP2*%
X152592857Y-104471000D03*
%TD*%
M02*
