M48
; DRILL file {KiCad 9.0.6-1.fc43} date 2025-12-11T01:11:38+1030
; FORMAT={-:-/ absolute / metric / decimal}
; #@! TF.CreationDate,2025-12-11T01:11:38+10:30
; #@! TF.GenerationSoftware,Kicad,Pcbnew,9.0.6-1.fc43
; #@! TF.FileFunction,Plated,1,2,PTH
FMAT,2
METRIC
; #@! TA.AperFunction,Plated,PTH,ViaDrill
T1C0.400
%
G90
G05
T1
X137.593Y-94.971
X137.593Y-97.971
X137.593Y-100.971
X137.593Y-103.471
X138.093Y-85.971
X138.093Y-87.471
X138.093Y-88.971
X138.093Y-90.471
X138.093Y-91.971
X138.093Y-93.471
X139.593Y-85.971
X139.593Y-89.871
X140.593Y-98.171
X141.093Y-85.971
X141.093Y-89.871
X141.593Y-100.971
X141.593Y-103.471
X141.593Y-105.971
X142.593Y-85.971
X142.593Y-87.471
X142.593Y-88.971
X143.843Y-98.171
X144.518Y-90.971
X146.093Y-90.971
X147.093Y-101.471
X147.593Y-98.171
X147.593Y-105.971
X148.593Y-85.971
X148.593Y-87.471
X148.593Y-88.971
X150.093Y-85.971
X150.093Y-89.871
X150.593Y-98.171
X150.593Y-101.471
X151.093Y-105.971
X151.593Y-85.971
X151.593Y-89.871
X153.093Y-85.971
X153.093Y-87.471
X153.093Y-88.971
X153.093Y-90.471
X153.093Y-91.971
X153.093Y-93.471
X153.593Y-96.971
X153.593Y-102.971
X153.593Y-105.971
M30
