%TF.GenerationSoftware,KiCad,Pcbnew,9.0.6-1.fc43*%
%TF.CreationDate,2025-12-11T01:11:35+10:30*%
%TF.ProjectId,fastboot_breakout,66617374-626f-46f7-945f-627265616b6f,1.1*%
%TF.SameCoordinates,Original*%
%TF.FileFunction,Copper,L2,Bot*%
%TF.FilePolarity,Positive*%
%FSLAX46Y46*%
G04 Gerber Fmt 4.6, Leading zero omitted, Abs format (unit mm)*
G04 Created by KiCad (PCBNEW 9.0.6-1.fc43) date 2025-12-11 01:11:35*
%MOMM*%
%LPD*%
G01*
G04 APERTURE LIST*
G04 Aperture macros list*
%AMRoundRect*
0 Rectangle with rounded corners*
0 $1 Rounding radius*
0 $2 $3 $4 $5 $6 $7 $8 $9 X,Y pos of 4 corners*
0 Add a 4 corners polygon primitive as box body*
4,1,4,$2,$3,$4,$5,$6,$7,$8,$9,$2,$3,0*
0 Add four circle primitives for the rounded corners*
1,1,$1+$1,$2,$3*
1,1,$1+$1,$4,$5*
1,1,$1+$1,$6,$7*
1,1,$1+$1,$8,$9*
0 Add four rect primitives between the rounded corners*
20,1,$1+$1,$2,$3,$4,$5,0*
20,1,$1+$1,$4,$5,$6,$7,0*
20,1,$1+$1,$6,$7,$8,$9,0*
20,1,$1+$1,$8,$9,$2,$3,0*%
G04 Aperture macros list end*
%TA.AperFunction,SMDPad,CuDef*%
%ADD10RoundRect,0.195000X0.455000X1.555000X-0.455000X1.555000X-0.455000X-1.555000X0.455000X-1.555000X0*%
%TD*%
%TA.AperFunction,ViaPad*%
%ADD11C,0.700000*%
%TD*%
%TA.AperFunction,Conductor*%
%ADD12C,0.250000*%
%TD*%
G04 APERTURE END LIST*
D10*
%TO.P,J1,1,Pin_1*%
%TO.N,/MCU_Vref*%
X152592857Y-110721000D03*
%TO.P,J1,2,Pin_2*%
%TO.N,/MCU_RX*%
X150592857Y-110721000D03*
%TO.P,J1,3,Pin_3*%
%TO.N,/MCU_TX*%
X148592857Y-110721000D03*
%TO.P,J1,4,Pin_4*%
%TO.N,/MCU_SWCLK*%
X146592857Y-110721000D03*
%TO.P,J1,5,Pin_5*%
%TO.N,/MCU_SWDIO*%
X144592857Y-110721000D03*
%TO.P,J1,6,Pin_6*%
%TO.N,GND*%
X142592857Y-110721000D03*
%TO.P,J1,7,Pin_7*%
%TO.N,/MCU_NC1*%
X140592857Y-110721000D03*
%TO.P,J1,8,Pin_8*%
%TO.N,/MCU_NC2*%
X138592857Y-110721000D03*
%TD*%
D11*
%TO.N,/Shield*%
X148592857Y-88971000D03*
X150092857Y-89871000D03*
X153092857Y-91971000D03*
X139592857Y-89871000D03*
X141092857Y-89871000D03*
X153092857Y-87471000D03*
X148592857Y-85971000D03*
X138092857Y-85971000D03*
X153092857Y-93471000D03*
X150092857Y-85971000D03*
X141092857Y-85971000D03*
X153092857Y-85971000D03*
X142592857Y-87471000D03*
X151592857Y-85971000D03*
X138092857Y-87471000D03*
X142592857Y-88971000D03*
X138092857Y-91971000D03*
X153092857Y-88971000D03*
X153092857Y-90471000D03*
X138092857Y-90471000D03*
X148592857Y-87471000D03*
X151592857Y-89871000D03*
X138092857Y-93471000D03*
X138092857Y-88971000D03*
X139592857Y-85971000D03*
X142592857Y-85971000D03*
%TO.N,GND*%
X137592857Y-94971000D03*
X147592857Y-105971000D03*
X143842857Y-98171000D03*
X150592857Y-101471000D03*
X140592857Y-98171000D03*
X153592857Y-105971000D03*
X147592857Y-98171000D03*
X147092857Y-101471000D03*
X137592857Y-97971000D03*
X151092857Y-105971000D03*
X141592857Y-103471000D03*
X141592857Y-105971000D03*
X137592857Y-100971000D03*
X153592857Y-96971000D03*
X137592857Y-103471000D03*
X150592857Y-98171000D03*
X153592857Y-102971000D03*
X141592857Y-100971000D03*
%TO.N,/D+*%
X146092857Y-90971000D03*
X144517857Y-90971000D03*
%TD*%
D12*
%TO.N,/D+*%
X144517857Y-90971000D02*
X146092857Y-90971000D01*
%TD*%
%TA.AperFunction,Conductor*%
%TO.N,GND*%
G36*
X137217357Y-94176500D02*
G01*
X137217361Y-94176500D01*
X153968351Y-94176500D01*
X153968357Y-94176500D01*
X154009118Y-94172117D01*
X154059059Y-94184442D01*
X154089394Y-94225985D01*
X154092357Y-94246886D01*
X154092357Y-112395300D01*
X154074764Y-112443638D01*
X154030215Y-112469358D01*
X154017157Y-112470500D01*
X153505529Y-112470500D01*
X153457191Y-112452907D01*
X153431471Y-112408358D01*
X153431255Y-112383536D01*
X153443357Y-112307128D01*
X153443357Y-109134872D01*
X153428689Y-109042260D01*
X153371812Y-108930633D01*
X153371811Y-108930632D01*
X153371810Y-108930630D01*
X153283226Y-108842046D01*
X153171597Y-108785168D01*
X153171599Y-108785168D01*
X153078987Y-108770500D01*
X153078985Y-108770500D01*
X152106729Y-108770500D01*
X152106726Y-108770500D01*
X152014115Y-108785168D01*
X151902487Y-108842046D01*
X151813903Y-108930630D01*
X151757025Y-109042258D01*
X151742357Y-109134869D01*
X151742357Y-112307129D01*
X151754459Y-112383536D01*
X151744644Y-112434031D01*
X151704668Y-112466403D01*
X151680185Y-112470500D01*
X151505529Y-112470500D01*
X151457191Y-112452907D01*
X151431471Y-112408358D01*
X151431255Y-112383536D01*
X151443357Y-112307128D01*
X151443357Y-109134872D01*
X151428689Y-109042260D01*
X151371812Y-108930633D01*
X151371811Y-108930632D01*
X151371810Y-108930630D01*
X151283226Y-108842046D01*
X151171597Y-108785168D01*
X151171599Y-108785168D01*
X151078987Y-108770500D01*
X151078985Y-108770500D01*
X150106729Y-108770500D01*
X150106726Y-108770500D01*
X150014115Y-108785168D01*
X149902487Y-108842046D01*
X149813903Y-108930630D01*
X149757025Y-109042258D01*
X149742357Y-109134869D01*
X149742357Y-112307129D01*
X149754459Y-112383536D01*
X149744644Y-112434031D01*
X149704668Y-112466403D01*
X149680185Y-112470500D01*
X149505529Y-112470500D01*
X149457191Y-112452907D01*
X149431471Y-112408358D01*
X149431255Y-112383536D01*
X149443357Y-112307128D01*
X149443357Y-109134872D01*
X149428689Y-109042260D01*
X149371812Y-108930633D01*
X149371811Y-108930632D01*
X149371810Y-108930630D01*
X149283226Y-108842046D01*
X149171597Y-108785168D01*
X149171599Y-108785168D01*
X149078987Y-108770500D01*
X149078985Y-108770500D01*
X148106729Y-108770500D01*
X148106726Y-108770500D01*
X148014115Y-108785168D01*
X147902487Y-108842046D01*
X147813903Y-108930630D01*
X147757025Y-109042258D01*
X147742357Y-109134869D01*
X147742357Y-112307129D01*
X147754459Y-112383536D01*
X147744644Y-112434031D01*
X147704668Y-112466403D01*
X147680185Y-112470500D01*
X147505529Y-112470500D01*
X147457191Y-112452907D01*
X147431471Y-112408358D01*
X147431255Y-112383536D01*
X147443357Y-112307128D01*
X147443357Y-109134872D01*
X147428689Y-109042260D01*
X147371812Y-108930633D01*
X147371811Y-108930632D01*
X147371810Y-108930630D01*
X147283226Y-108842046D01*
X147171597Y-108785168D01*
X147171599Y-108785168D01*
X147078987Y-108770500D01*
X147078985Y-108770500D01*
X146106729Y-108770500D01*
X146106726Y-108770500D01*
X146014115Y-108785168D01*
X145902487Y-108842046D01*
X145813903Y-108930630D01*
X145757025Y-109042258D01*
X145742357Y-109134869D01*
X145742357Y-112307129D01*
X145754459Y-112383536D01*
X145744644Y-112434031D01*
X145704668Y-112466403D01*
X145680185Y-112470500D01*
X145505529Y-112470500D01*
X145457191Y-112452907D01*
X145431471Y-112408358D01*
X145431255Y-112383536D01*
X145443357Y-112307128D01*
X145443357Y-109134872D01*
X145428689Y-109042260D01*
X145371812Y-108930633D01*
X145371811Y-108930632D01*
X145371810Y-108930630D01*
X145283226Y-108842046D01*
X145171597Y-108785168D01*
X145171599Y-108785168D01*
X145078987Y-108770500D01*
X145078985Y-108770500D01*
X144106729Y-108770500D01*
X144106726Y-108770500D01*
X144014115Y-108785168D01*
X143902487Y-108842046D01*
X143813903Y-108930630D01*
X143757025Y-109042258D01*
X143742357Y-109134869D01*
X143742357Y-112307129D01*
X143754459Y-112383536D01*
X143744644Y-112434031D01*
X143704668Y-112466403D01*
X143680185Y-112470500D01*
X143508263Y-112470500D01*
X143459925Y-112452907D01*
X143434205Y-112408358D01*
X143433989Y-112383536D01*
X143446056Y-112307343D01*
X143446057Y-112307336D01*
X143446057Y-110822600D01*
X141739657Y-110822600D01*
X141739657Y-112307343D01*
X141751725Y-112383536D01*
X141741910Y-112434031D01*
X141701933Y-112466403D01*
X141677451Y-112470500D01*
X141505529Y-112470500D01*
X141457191Y-112452907D01*
X141431471Y-112408358D01*
X141431255Y-112383536D01*
X141443357Y-112307128D01*
X141443357Y-109134872D01*
X141443323Y-109134656D01*
X141739657Y-109134656D01*
X141739657Y-110619400D01*
X142491257Y-110619400D01*
X142694457Y-110619400D01*
X143446057Y-110619400D01*
X143446057Y-109134664D01*
X143446056Y-109134656D01*
X143431288Y-109041413D01*
X143374022Y-108929023D01*
X143284833Y-108839834D01*
X143172442Y-108782568D01*
X143172444Y-108782568D01*
X143079200Y-108767800D01*
X142694457Y-108767800D01*
X142694457Y-110619400D01*
X142491257Y-110619400D01*
X142491257Y-108767800D01*
X142106513Y-108767800D01*
X142013270Y-108782568D01*
X141900880Y-108839834D01*
X141811691Y-108929023D01*
X141754425Y-109041413D01*
X141739657Y-109134656D01*
X141443323Y-109134656D01*
X141428689Y-109042260D01*
X141371812Y-108930633D01*
X141371811Y-108930632D01*
X141371810Y-108930630D01*
X141283226Y-108842046D01*
X141171597Y-108785168D01*
X141171599Y-108785168D01*
X141078987Y-108770500D01*
X141078985Y-108770500D01*
X140106729Y-108770500D01*
X140106726Y-108770500D01*
X140014115Y-108785168D01*
X139902487Y-108842046D01*
X139813903Y-108930630D01*
X139757025Y-109042258D01*
X139742357Y-109134869D01*
X139742357Y-112307129D01*
X139754459Y-112383536D01*
X139744644Y-112434031D01*
X139704668Y-112466403D01*
X139680185Y-112470500D01*
X139505529Y-112470500D01*
X139457191Y-112452907D01*
X139431471Y-112408358D01*
X139431255Y-112383536D01*
X139443357Y-112307128D01*
X139443357Y-109134872D01*
X139428689Y-109042260D01*
X139371812Y-108930633D01*
X139371811Y-108930632D01*
X139371810Y-108930630D01*
X139283226Y-108842046D01*
X139171597Y-108785168D01*
X139171599Y-108785168D01*
X139078987Y-108770500D01*
X139078985Y-108770500D01*
X138106729Y-108770500D01*
X138106726Y-108770500D01*
X138014115Y-108785168D01*
X137902487Y-108842046D01*
X137813903Y-108930630D01*
X137757025Y-109042258D01*
X137742357Y-109134869D01*
X137742357Y-112307129D01*
X137754459Y-112383536D01*
X137744644Y-112434031D01*
X137704668Y-112466403D01*
X137680185Y-112470500D01*
X137168557Y-112470500D01*
X137120219Y-112452907D01*
X137094499Y-112408358D01*
X137093357Y-112395300D01*
X137093357Y-94245456D01*
X137110950Y-94197118D01*
X137155499Y-94171398D01*
X137179259Y-94171022D01*
X137217357Y-94176500D01*
G37*
%TD.AperFunction*%
%TD*%
%TA.AperFunction,Conductor*%
%TO.N,/Shield*%
G36*
X154035396Y-85491185D02*
G01*
X154081151Y-85543989D01*
X154092357Y-85595500D01*
X154092357Y-93847000D01*
X154072672Y-93914039D01*
X154019868Y-93959794D01*
X153968357Y-93971000D01*
X137217357Y-93971000D01*
X137150318Y-93951315D01*
X137104563Y-93898511D01*
X137093357Y-93847000D01*
X137093357Y-91258133D01*
X142187357Y-91258133D01*
X142187357Y-91393867D01*
X142221557Y-91521500D01*
X142222489Y-91524978D01*
X142290352Y-91642520D01*
X142290354Y-91642522D01*
X142290355Y-91642524D01*
X142386333Y-91738502D01*
X142386334Y-91738503D01*
X142386336Y-91738504D01*
X142503878Y-91806367D01*
X142503879Y-91806367D01*
X142503882Y-91806369D01*
X142634990Y-91841500D01*
X142634992Y-91841500D01*
X142770722Y-91841500D01*
X142770724Y-91841500D01*
X142901832Y-91806369D01*
X143019381Y-91738502D01*
X143115359Y-91642524D01*
X143183226Y-91524975D01*
X143218357Y-91393867D01*
X143218357Y-91258133D01*
X143183226Y-91127025D01*
X143134988Y-91043475D01*
X143115361Y-91009479D01*
X143115356Y-91009473D01*
X143019383Y-90913500D01*
X143019377Y-90913495D01*
X142993448Y-90898525D01*
X143967357Y-90898525D01*
X143967357Y-91043475D01*
X144004873Y-91183485D01*
X144004874Y-91183488D01*
X144077345Y-91309011D01*
X144077347Y-91309013D01*
X144077348Y-91309015D01*
X144179842Y-91411509D01*
X144179843Y-91411510D01*
X144179845Y-91411511D01*
X144305368Y-91483982D01*
X144305369Y-91483982D01*
X144305372Y-91483984D01*
X144445382Y-91521500D01*
X144445385Y-91521500D01*
X144590329Y-91521500D01*
X144590332Y-91521500D01*
X144730342Y-91483984D01*
X144855872Y-91411509D01*
X144934563Y-91332818D01*
X144995887Y-91299334D01*
X145022244Y-91296500D01*
X145588470Y-91296500D01*
X145655509Y-91316185D01*
X145676151Y-91332818D01*
X145754842Y-91411509D01*
X145754844Y-91411510D01*
X145754845Y-91411511D01*
X145880368Y-91483982D01*
X145880369Y-91483982D01*
X145880372Y-91483984D01*
X146020382Y-91521500D01*
X146020385Y-91521500D01*
X146165329Y-91521500D01*
X146165332Y-91521500D01*
X146305342Y-91483984D01*
X146430872Y-91411509D01*
X146533366Y-91309015D01*
X146562743Y-91258133D01*
X147967357Y-91258133D01*
X147967357Y-91393867D01*
X148001557Y-91521500D01*
X148002489Y-91524978D01*
X148070352Y-91642520D01*
X148070354Y-91642522D01*
X148070355Y-91642524D01*
X148166333Y-91738502D01*
X148166334Y-91738503D01*
X148166336Y-91738504D01*
X148283878Y-91806367D01*
X148283879Y-91806367D01*
X148283882Y-91806369D01*
X148414990Y-91841500D01*
X148414992Y-91841500D01*
X148550722Y-91841500D01*
X148550724Y-91841500D01*
X148681832Y-91806369D01*
X148799381Y-91738502D01*
X148895359Y-91642524D01*
X148963226Y-91524975D01*
X148998357Y-91393867D01*
X148998357Y-91258133D01*
X148963226Y-91127025D01*
X148914988Y-91043475D01*
X148895361Y-91009479D01*
X148895356Y-91009473D01*
X148799383Y-90913500D01*
X148799377Y-90913495D01*
X148681835Y-90845632D01*
X148681836Y-90845632D01*
X148666341Y-90841480D01*
X148550724Y-90810500D01*
X148414990Y-90810500D01*
X148299372Y-90841480D01*
X148283878Y-90845632D01*
X148166336Y-90913495D01*
X148166330Y-90913500D01*
X148070357Y-91009473D01*
X148070352Y-91009479D01*
X148002489Y-91127021D01*
X148002488Y-91127025D01*
X147967357Y-91258133D01*
X146562743Y-91258133D01*
X146605841Y-91183485D01*
X146643357Y-91043475D01*
X146643357Y-90898525D01*
X146605841Y-90758515D01*
X146538955Y-90642666D01*
X146533368Y-90632988D01*
X146533363Y-90632982D01*
X146430874Y-90530493D01*
X146430868Y-90530488D01*
X146305345Y-90458017D01*
X146305346Y-90458017D01*
X146293863Y-90454940D01*
X146165332Y-90420500D01*
X146020382Y-90420500D01*
X145891850Y-90454940D01*
X145880368Y-90458017D01*
X145754845Y-90530488D01*
X145676151Y-90609182D01*
X145614827Y-90642666D01*
X145588470Y-90645500D01*
X145022244Y-90645500D01*
X144955205Y-90625815D01*
X144934563Y-90609182D01*
X144855872Y-90530491D01*
X144855869Y-90530489D01*
X144855868Y-90530488D01*
X144730345Y-90458017D01*
X144730346Y-90458017D01*
X144718863Y-90454940D01*
X144590332Y-90420500D01*
X144445382Y-90420500D01*
X144316850Y-90454940D01*
X144305368Y-90458017D01*
X144179845Y-90530488D01*
X144179839Y-90530493D01*
X144077350Y-90632982D01*
X144077345Y-90632988D01*
X144004874Y-90758511D01*
X144004873Y-90758515D01*
X143967357Y-90898525D01*
X142993448Y-90898525D01*
X142901835Y-90845632D01*
X142901836Y-90845632D01*
X142886341Y-90841480D01*
X142770724Y-90810500D01*
X142634990Y-90810500D01*
X142519372Y-90841480D01*
X142503878Y-90845632D01*
X142386336Y-90913495D01*
X142386330Y-90913500D01*
X142290357Y-91009473D01*
X142290352Y-91009479D01*
X142222489Y-91127021D01*
X142222488Y-91127025D01*
X142187357Y-91258133D01*
X137093357Y-91258133D01*
X137093357Y-85595500D01*
X137113042Y-85528461D01*
X137165846Y-85482706D01*
X137217357Y-85471500D01*
X153968357Y-85471500D01*
X154035396Y-85491185D01*
G37*
%TD.AperFunction*%
%TD*%
M02*
