%TF.GenerationSoftware,KiCad,Pcbnew,9.0.6-1.fc43*%
%TF.CreationDate,2025-12-11T00:59:32+10:30*%
%TF.ProjectId,DreameBreakout,44726561-6d65-4427-9265-616b6f75742e,1.1*%
%TF.SameCoordinates,Original*%
%TF.FileFunction,Copper,L2,Bot*%
%TF.FilePolarity,Positive*%
%FSLAX46Y46*%
G04 Gerber Fmt 4.6, Leading zero omitted, Abs format (unit mm)*
G04 Created by KiCad (PCBNEW 9.0.6-1.fc43) date 2025-12-11 00:59:32*
%MOMM*%
%LPD*%
G01*
G04 APERTURE LIST*
%TA.AperFunction,ComponentPad*%
%ADD10R,1.700000X1.700000*%
%TD*%
%TA.AperFunction,ComponentPad*%
%ADD11C,1.700000*%
%TD*%
%TA.AperFunction,ComponentPad*%
%ADD12R,0.840000X0.840000*%
%TD*%
%TA.AperFunction,ComponentPad*%
%ADD13C,0.840000*%
%TD*%
%TA.AperFunction,ComponentPad*%
%ADD14O,1.850000X0.850000*%
%TD*%
%TA.AperFunction,ComponentPad*%
%ADD15C,2.000000*%
%TD*%
%TA.AperFunction,SMDPad,CuDef*%
%ADD16R,1.000000X2.500000*%
%TD*%
%TA.AperFunction,ComponentPad*%
%ADD17C,3.346000*%
%TD*%
%TA.AperFunction,ComponentPad*%
%ADD18C,1.428000*%
%TD*%
%TA.AperFunction,ComponentPad*%
%ADD19R,1.428000X1.428000*%
%TD*%
%TA.AperFunction,ViaPad*%
%ADD20C,1.000000*%
%TD*%
%TA.AperFunction,Conductor*%
%ADD21C,0.250000*%
%TD*%
%TA.AperFunction,Conductor*%
%ADD22C,0.500000*%
%TD*%
G04 APERTURE END LIST*
D10*
%TO.P,JP2,1,A*%
%TO.N,GND*%
X152400000Y-81875000D03*
D11*
%TO.P,JP2,2,B*%
%TO.N,/SoC_USB_OTG_ID*%
X149860000Y-81875000D03*
%TD*%
D10*
%TO.P,J4,1,Pin_1*%
%TO.N,/MCU_NC2*%
X151675000Y-87280000D03*
D11*
%TO.P,J4,2,Pin_2*%
%TO.N,/MCU_NC1*%
X151675000Y-89820000D03*
%TO.P,J4,3,Pin_3*%
%TO.N,/MCU_GND*%
X151675000Y-92360000D03*
%TO.P,J4,4,Pin_4*%
%TO.N,/MCU_SWDIO*%
X151675000Y-94900000D03*
%TO.P,J4,5,Pin_5*%
%TO.N,/MCU_SWCLK*%
X151675000Y-97440000D03*
%TO.P,J4,6,Pin_6*%
%TO.N,/MCU_TX*%
X151675000Y-99980000D03*
%TO.P,J4,7,Pin_7*%
%TO.N,/MCU_RX*%
X151675000Y-102520000D03*
%TO.P,J4,8,Pin_8*%
%TO.N,/MCU_Vref*%
X151675000Y-105060000D03*
%TD*%
D12*
%TO.P,J2,1,VBUS*%
%TO.N,/USB_VBUS*%
X138905000Y-79425000D03*
D13*
%TO.P,J2,2,D-*%
%TO.N,/D-*%
X139905000Y-78775000D03*
%TO.P,J2,3,D+*%
%TO.N,/D+*%
X138905000Y-78125000D03*
%TO.P,J2,4,ID*%
%TO.N,/SoC_USB_OTG_ID*%
X139905000Y-77475000D03*
%TO.P,J2,5,GND*%
%TO.N,GND*%
X138905000Y-76825000D03*
D14*
%TO.P,J2,6,Shield*%
X139125000Y-81700000D03*
X139125000Y-74550000D03*
%TD*%
D10*
%TO.P,J5,1,Pin_1*%
%TO.N,/VBUS*%
X139625000Y-87250000D03*
D11*
%TO.P,J5,2,Pin_2*%
%TO.N,/D-*%
X139625000Y-89790000D03*
%TO.P,J5,3,Pin_3*%
%TO.N,/D+*%
X139625000Y-92330000D03*
%TO.P,J5,4,Pin_4*%
%TO.N,/SoC_USB_OTG_ID*%
X139625000Y-94870000D03*
%TO.P,J5,5,Pin_5*%
%TO.N,GND*%
X139625000Y-97410000D03*
%TO.P,J5,6,Pin_6*%
%TO.N,/SoC_TX*%
X139625000Y-99950000D03*
%TO.P,J5,7,Pin_7*%
%TO.N,/SoC_RX*%
X139625000Y-102490000D03*
%TO.P,J5,8,Pin_8*%
%TO.N,/Boot_SEL*%
X139625000Y-105030000D03*
%TD*%
D10*
%TO.P,JP1,1,A*%
%TO.N,/VBUS*%
X146150000Y-81875000D03*
D11*
%TO.P,JP1,2,B*%
%TO.N,/USB_VBUS*%
X143610000Y-81875000D03*
%TD*%
D15*
%TO.P,SW1,1,1*%
%TO.N,GND*%
X148125000Y-78375000D03*
X148125000Y-71875000D03*
%TO.P,SW1,2,2*%
%TO.N,/Boot_SEL*%
X152625000Y-78375000D03*
X152625000Y-71875000D03*
%TD*%
D16*
%TO.P,J1.2,1,Pin_1*%
%TO.N,/MCU_Vref*%
X152625000Y-120975000D03*
%TO.P,J1.2,2,Pin_2*%
%TO.N,/MCU_RX*%
X150625000Y-120975000D03*
%TO.P,J1.2,3,Pin_3*%
%TO.N,/MCU_TX*%
X148625000Y-120975000D03*
%TO.P,J1.2,4,Pin_4*%
%TO.N,/MCU_SWCLK*%
X146625000Y-120975000D03*
%TO.P,J1.2,5,Pin_5*%
%TO.N,/MCU_SWDIO*%
X144625000Y-120975000D03*
%TO.P,J1.2,6,Pin_6*%
%TO.N,/MCU_GND*%
X142625000Y-120975000D03*
%TO.P,J1.2,7,Pin_7*%
%TO.N,/MCU_NC1*%
X140625000Y-120975000D03*
%TO.P,J1.2,8,Pin_8*%
%TO.N,/MCU_NC2*%
X138625000Y-120975000D03*
%TD*%
D17*
%TO.P,J1,5,Shield*%
%TO.N,GND*%
X152125000Y-65125000D03*
X138985000Y-65125000D03*
D18*
%TO.P,J1,4,GND*%
X142055000Y-68125000D03*
%TO.P,J1,3,D+*%
%TO.N,/D+*%
X144555000Y-68125000D03*
%TO.P,J1,2,D-*%
%TO.N,/D-*%
X146555000Y-68125000D03*
D19*
%TO.P,J1,1,VBUS*%
%TO.N,/VBUS*%
X149055000Y-68125000D03*
%TD*%
D20*
%TO.N,GND*%
X142625000Y-118875000D03*
X141875000Y-112375000D03*
X140625000Y-109375000D03*
X141625000Y-116375000D03*
X140625000Y-112375000D03*
X144625000Y-118875000D03*
X151125000Y-109375000D03*
X143125000Y-94375000D03*
X145625000Y-73375000D03*
X137625000Y-105125000D03*
X143125000Y-100375000D03*
X144125000Y-70375000D03*
X143125000Y-103375000D03*
X137625000Y-112375000D03*
X141625000Y-78875000D03*
X143125000Y-109375000D03*
X145625000Y-91375000D03*
X151125000Y-75375000D03*
X137625000Y-109375000D03*
X151625000Y-116375000D03*
X149875000Y-96125000D03*
X148125000Y-86375000D03*
X152625000Y-69375000D03*
X150125000Y-84375000D03*
X144625000Y-78875000D03*
X145625000Y-65375000D03*
X145625000Y-109375000D03*
X149875000Y-91125000D03*
X141625000Y-72875000D03*
X143125000Y-106375000D03*
X145625000Y-103375000D03*
X148625000Y-65375000D03*
X142625000Y-85375000D03*
X142625000Y-76375000D03*
X137875000Y-93625000D03*
X142625000Y-65375000D03*
X150125000Y-98875000D03*
X138625000Y-72875000D03*
X149875000Y-93625000D03*
X145625000Y-88875000D03*
X139625000Y-85375000D03*
X150125000Y-101375000D03*
X148125000Y-75375000D03*
X137625000Y-116375000D03*
X143125000Y-97375000D03*
X145625000Y-94375000D03*
X144625000Y-83375000D03*
X141625000Y-70375000D03*
X149875000Y-88875000D03*
X145625000Y-97375000D03*
X138625000Y-70375000D03*
X153625000Y-84375000D03*
X145625000Y-106375000D03*
X141625000Y-88375000D03*
X145625000Y-100375000D03*
X143125000Y-92375000D03*
X151125000Y-107375000D03*
X152625000Y-112375000D03*
X150625000Y-112375000D03*
X148875000Y-116375000D03*
X145625000Y-112375000D03*
X147625000Y-118875000D03*
X137625000Y-118875000D03*
X151625000Y-118875000D03*
%TD*%
D21*
%TO.N,/MCU_TX*%
X148625000Y-121125000D02*
X148625000Y-118875000D01*
X148625000Y-118875000D02*
X150125000Y-117375000D01*
X150125000Y-117375000D02*
X150125000Y-116125000D01*
X150125000Y-116125000D02*
X149125000Y-115125000D01*
X149125000Y-115125000D02*
X149125000Y-100625000D01*
X149800000Y-99950000D02*
X151625000Y-99950000D01*
X149125000Y-100625000D02*
X149800000Y-99950000D01*
%TO.N,/MCU_NC2*%
X151625000Y-87250000D02*
X150250000Y-87250000D01*
X150250000Y-87250000D02*
X148125000Y-89375000D01*
X148125000Y-89375000D02*
X148125000Y-90875000D01*
X148125000Y-90875000D02*
X146625000Y-92375000D01*
X146625000Y-92375000D02*
X146625000Y-112875000D01*
X138625000Y-114125000D02*
X138625000Y-121125000D01*
X146625000Y-112875000D02*
X146125000Y-113375000D01*
X139375000Y-113375000D02*
X138625000Y-114125000D01*
X146125000Y-113375000D02*
X139375000Y-113375000D01*
%TO.N,/MCU_Vref*%
X152625000Y-114625000D02*
X152625000Y-121125000D01*
X151625000Y-113625000D02*
X152625000Y-114625000D01*
X151625000Y-111250000D02*
X151625000Y-113625000D01*
X152625000Y-110250000D02*
X151625000Y-111250000D01*
X152625000Y-107125000D02*
X152625000Y-110250000D01*
X151625000Y-106125000D02*
X152625000Y-107125000D01*
X151625000Y-105030000D02*
X151625000Y-106125000D01*
%TO.N,/MCU_NC1*%
X151625000Y-89790000D02*
X149295000Y-89790000D01*
X149295000Y-89790000D02*
X148710000Y-90375000D01*
X148710000Y-91290000D02*
X148710000Y-90375000D01*
X147125000Y-92875000D02*
X148710000Y-91290000D01*
X140625000Y-121125000D02*
X140625000Y-119375000D01*
X147125000Y-113262810D02*
X147125000Y-92875000D01*
X140625000Y-119375000D02*
X139375000Y-118125000D01*
X146512810Y-113875000D02*
X147125000Y-113262810D01*
X139375000Y-118125000D02*
X139375000Y-114625000D01*
X140125000Y-113875000D02*
X146512810Y-113875000D01*
X139375000Y-114625000D02*
X140125000Y-113875000D01*
%TO.N,/MCU_RX*%
X150625000Y-121125000D02*
X150625000Y-115875000D01*
X150260000Y-102490000D02*
X151625000Y-102490000D01*
X150625000Y-115875000D02*
X149625000Y-114875000D01*
X149625000Y-103125000D02*
X150260000Y-102490000D01*
X149625000Y-114875000D02*
X149625000Y-103125000D01*
%TO.N,/Boot_SEL*%
X142125000Y-94125000D02*
X142125000Y-90375000D01*
X140125000Y-96125000D02*
X142125000Y-94125000D01*
X142125000Y-90375000D02*
X149125000Y-83375000D01*
X137875000Y-96125000D02*
X140125000Y-96125000D01*
X149125000Y-83375000D02*
X153375000Y-83375000D01*
X137375000Y-96625000D02*
X137875000Y-96125000D01*
X153375000Y-83375000D02*
X153875000Y-82875000D01*
X137375000Y-102780000D02*
X137375000Y-96625000D01*
X153875000Y-82875000D02*
X153875000Y-79625000D01*
X139625000Y-105030000D02*
X137375000Y-102780000D01*
X153875000Y-79625000D02*
X152625000Y-78375000D01*
X152625000Y-71875000D02*
X152625000Y-78375000D01*
%TO.N,/SoC_USB_OTG_ID*%
X139625000Y-94870000D02*
X141625000Y-92870000D01*
X141625000Y-92870000D02*
X141625000Y-90100000D01*
X141625000Y-90100000D02*
X149850000Y-81875000D01*
X149850000Y-81875000D02*
X149850000Y-80400000D01*
X149850000Y-80400000D02*
X150375000Y-79875000D01*
X150375000Y-79875000D02*
X150375000Y-77125000D01*
X150375000Y-77125000D02*
X149625000Y-76375000D01*
X149625000Y-76375000D02*
X144625000Y-76375000D01*
X144625000Y-76375000D02*
X143525000Y-77475000D01*
X143525000Y-77475000D02*
X139905000Y-77475000D01*
D22*
%TO.N,/USB_VBUS*%
X143610000Y-80360000D02*
X143125000Y-79875000D01*
X143610000Y-81875000D02*
X143610000Y-80360000D01*
X143125000Y-79875000D02*
X139355000Y-79875000D01*
X139355000Y-79875000D02*
X138905000Y-79425000D01*
D21*
%TO.N,/MCU_SWCLK*%
X150107500Y-97410000D02*
X151625000Y-97410000D01*
X148625000Y-98892500D02*
X150107500Y-97410000D01*
X147875000Y-115375000D02*
X148625000Y-114625000D01*
X148625000Y-114625000D02*
X148625000Y-98892500D01*
X146875000Y-115375000D02*
X147875000Y-115375000D01*
X146625000Y-115625000D02*
X146875000Y-115375000D01*
X146625000Y-121125000D02*
X146625000Y-115625000D01*
%TO.N,/MCU_GND*%
X140125000Y-115625000D02*
X140125000Y-117875000D01*
X141375000Y-114375000D02*
X140125000Y-115625000D01*
X146875000Y-114375000D02*
X141375000Y-114375000D01*
X147625000Y-113625000D02*
X146875000Y-114375000D01*
X147625000Y-93375000D02*
X147625000Y-113625000D01*
X140125000Y-117875000D02*
X142625000Y-120375000D01*
X148670000Y-92330000D02*
X147625000Y-93375000D01*
X151625000Y-92330000D02*
X148670000Y-92330000D01*
%TO.N,/MCU_SWDIO*%
X146125000Y-118875000D02*
X144625000Y-120375000D01*
X146125000Y-115375000D02*
X146125000Y-118875000D01*
X146625000Y-114875000D02*
X146125000Y-115375000D01*
X147375000Y-114875000D02*
X146625000Y-114875000D01*
X148125000Y-114125000D02*
X147375000Y-114875000D01*
X148125000Y-96375000D02*
X148125000Y-114125000D01*
X149630000Y-94870000D02*
X148125000Y-96375000D01*
X151625000Y-94870000D02*
X149630000Y-94870000D01*
%TD*%
%TA.AperFunction,Conductor*%
%TO.N,GND*%
G36*
X154043834Y-83339716D02*
G01*
X154099767Y-83381588D01*
X154124184Y-83447052D01*
X154124500Y-83455898D01*
X154124500Y-122750500D01*
X154104815Y-122817539D01*
X154052011Y-122863294D01*
X154000500Y-122874500D01*
X137249500Y-122874500D01*
X137182461Y-122854815D01*
X137136706Y-122802011D01*
X137125500Y-122750500D01*
X137125500Y-119700321D01*
X137874500Y-119700321D01*
X137874500Y-122249678D01*
X137889032Y-122322735D01*
X137889033Y-122322739D01*
X137889034Y-122322740D01*
X137944399Y-122405601D01*
X138027260Y-122460966D01*
X138027264Y-122460967D01*
X138100321Y-122475499D01*
X138100324Y-122475500D01*
X138100326Y-122475500D01*
X139149676Y-122475500D01*
X139149677Y-122475499D01*
X139222740Y-122460966D01*
X139305601Y-122405601D01*
X139360966Y-122322740D01*
X139375500Y-122249674D01*
X139375500Y-119700326D01*
X139375500Y-119700323D01*
X139375499Y-119700321D01*
X139360967Y-119627264D01*
X139360966Y-119627260D01*
X139305601Y-119544399D01*
X139222740Y-119489034D01*
X139222739Y-119489033D01*
X139222735Y-119489032D01*
X139149677Y-119474500D01*
X139149674Y-119474500D01*
X139124500Y-119474500D01*
X139057461Y-119454815D01*
X139011706Y-119402011D01*
X139000500Y-119350500D01*
X139000500Y-118580899D01*
X139020185Y-118513860D01*
X139072989Y-118468105D01*
X139142147Y-118458161D01*
X139205703Y-118487186D01*
X139212181Y-118493218D01*
X140028763Y-119309800D01*
X140062248Y-119371123D01*
X140057264Y-119440815D01*
X140015392Y-119496748D01*
X140009974Y-119500582D01*
X139944400Y-119544397D01*
X139889033Y-119627260D01*
X139889032Y-119627264D01*
X139874500Y-119700321D01*
X139874500Y-122249678D01*
X139889032Y-122322735D01*
X139889033Y-122322739D01*
X139889034Y-122322740D01*
X139944399Y-122405601D01*
X140027260Y-122460966D01*
X140027264Y-122460967D01*
X140100321Y-122475499D01*
X140100324Y-122475500D01*
X140100326Y-122475500D01*
X141149676Y-122475500D01*
X141149677Y-122475499D01*
X141222740Y-122460966D01*
X141305601Y-122405601D01*
X141360966Y-122322740D01*
X141375500Y-122249674D01*
X141375500Y-119955898D01*
X141395185Y-119888860D01*
X141447989Y-119843105D01*
X141517147Y-119833161D01*
X141580703Y-119862186D01*
X141587181Y-119868218D01*
X141838181Y-120119218D01*
X141871666Y-120180541D01*
X141874500Y-120206899D01*
X141874500Y-122249678D01*
X141889032Y-122322735D01*
X141889033Y-122322739D01*
X141889034Y-122322740D01*
X141944399Y-122405601D01*
X142027260Y-122460966D01*
X142027264Y-122460967D01*
X142100321Y-122475499D01*
X142100324Y-122475500D01*
X142100326Y-122475500D01*
X143149676Y-122475500D01*
X143149677Y-122475499D01*
X143222740Y-122460966D01*
X143305601Y-122405601D01*
X143360966Y-122322740D01*
X143375500Y-122249674D01*
X143375500Y-119700326D01*
X143375500Y-119700323D01*
X143375499Y-119700321D01*
X143360967Y-119627264D01*
X143360966Y-119627260D01*
X143305601Y-119544399D01*
X143222740Y-119489034D01*
X143222739Y-119489033D01*
X143222735Y-119489032D01*
X143149677Y-119474500D01*
X143149674Y-119474500D01*
X142306899Y-119474500D01*
X142239860Y-119454815D01*
X142219218Y-119438181D01*
X140536819Y-117755782D01*
X140503334Y-117694459D01*
X140500500Y-117668101D01*
X140500500Y-115831899D01*
X140520185Y-115764860D01*
X140536819Y-115744218D01*
X141494218Y-114786819D01*
X141555541Y-114753334D01*
X141581899Y-114750500D01*
X145919101Y-114750500D01*
X145986140Y-114770185D01*
X146031895Y-114822989D01*
X146041839Y-114892147D01*
X146012814Y-114955703D01*
X146006782Y-114962181D01*
X145824527Y-115144435D01*
X145775090Y-115230062D01*
X145775090Y-115230063D01*
X145749779Y-115324525D01*
X145749771Y-115324552D01*
X145749500Y-115325560D01*
X145749500Y-118668101D01*
X145729815Y-118735140D01*
X145713181Y-118755782D01*
X145030782Y-119438181D01*
X144969459Y-119471666D01*
X144943101Y-119474500D01*
X144100323Y-119474500D01*
X144027264Y-119489032D01*
X144027260Y-119489033D01*
X143944399Y-119544399D01*
X143889033Y-119627260D01*
X143889032Y-119627264D01*
X143874500Y-119700321D01*
X143874500Y-122249678D01*
X143889032Y-122322735D01*
X143889033Y-122322739D01*
X143889034Y-122322740D01*
X143944399Y-122405601D01*
X144027260Y-122460966D01*
X144027264Y-122460967D01*
X144100321Y-122475499D01*
X144100324Y-122475500D01*
X144100326Y-122475500D01*
X145149676Y-122475500D01*
X145149677Y-122475499D01*
X145222740Y-122460966D01*
X145305601Y-122405601D01*
X145360966Y-122322740D01*
X145375500Y-122249674D01*
X145375500Y-120206898D01*
X145395185Y-120139859D01*
X145411815Y-120119221D01*
X145662819Y-119868216D01*
X145724142Y-119834732D01*
X145793834Y-119839716D01*
X145849767Y-119881588D01*
X145874184Y-119947052D01*
X145874500Y-119955898D01*
X145874500Y-122249678D01*
X145889032Y-122322735D01*
X145889033Y-122322739D01*
X145889034Y-122322740D01*
X145944399Y-122405601D01*
X146027260Y-122460966D01*
X146027264Y-122460967D01*
X146100321Y-122475499D01*
X146100324Y-122475500D01*
X146100326Y-122475500D01*
X147149676Y-122475500D01*
X147149677Y-122475499D01*
X147222740Y-122460966D01*
X147305601Y-122405601D01*
X147360966Y-122322740D01*
X147375500Y-122249674D01*
X147375500Y-119700326D01*
X147375500Y-119700323D01*
X147375499Y-119700321D01*
X147360967Y-119627264D01*
X147360966Y-119627260D01*
X147305601Y-119544399D01*
X147222740Y-119489034D01*
X147222739Y-119489033D01*
X147222735Y-119489032D01*
X147149677Y-119474500D01*
X147149674Y-119474500D01*
X147124500Y-119474500D01*
X147057461Y-119454815D01*
X147011706Y-119402011D01*
X147000500Y-119350500D01*
X147000500Y-115874500D01*
X147020185Y-115807461D01*
X147072989Y-115761706D01*
X147124500Y-115750500D01*
X147924435Y-115750500D01*
X147924436Y-115750500D01*
X147972186Y-115737705D01*
X148019938Y-115724910D01*
X148105562Y-115675475D01*
X148175475Y-115605562D01*
X148567436Y-115213600D01*
X148628757Y-115180117D01*
X148698448Y-115185101D01*
X148754382Y-115226972D01*
X148771669Y-115262560D01*
X148771981Y-115262431D01*
X148774149Y-115267667D01*
X148774889Y-115269190D01*
X148775090Y-115269938D01*
X148807203Y-115325560D01*
X148824526Y-115355563D01*
X149713181Y-116244218D01*
X149746666Y-116305541D01*
X149749500Y-116331899D01*
X149749500Y-117168101D01*
X149729815Y-117235140D01*
X149713181Y-117255782D01*
X148324526Y-118644436D01*
X148275091Y-118730059D01*
X148275091Y-118730060D01*
X148275090Y-118730062D01*
X148249500Y-118825565D01*
X148249500Y-118825567D01*
X148249500Y-119350500D01*
X148229815Y-119417539D01*
X148177011Y-119463294D01*
X148125500Y-119474500D01*
X148100323Y-119474500D01*
X148027264Y-119489032D01*
X148027260Y-119489033D01*
X147944399Y-119544399D01*
X147889033Y-119627260D01*
X147889032Y-119627264D01*
X147874500Y-119700321D01*
X147874500Y-122249678D01*
X147889032Y-122322735D01*
X147889033Y-122322739D01*
X147889034Y-122322740D01*
X147944399Y-122405601D01*
X148027260Y-122460966D01*
X148027264Y-122460967D01*
X148100321Y-122475499D01*
X148100324Y-122475500D01*
X148100326Y-122475500D01*
X149149676Y-122475500D01*
X149149677Y-122475499D01*
X149222740Y-122460966D01*
X149305601Y-122405601D01*
X149360966Y-122322740D01*
X149375500Y-122249674D01*
X149375500Y-119700326D01*
X149375500Y-119700323D01*
X149375499Y-119700321D01*
X149360967Y-119627264D01*
X149360966Y-119627260D01*
X149305601Y-119544399D01*
X149222740Y-119489034D01*
X149222739Y-119489033D01*
X149222735Y-119489032D01*
X149149677Y-119474500D01*
X149149674Y-119474500D01*
X149124500Y-119474500D01*
X149057461Y-119454815D01*
X149011706Y-119402011D01*
X149000500Y-119350500D01*
X149000500Y-119081899D01*
X149020185Y-119014860D01*
X149036819Y-118994218D01*
X150037819Y-117993218D01*
X150099142Y-117959733D01*
X150168834Y-117964717D01*
X150224767Y-118006589D01*
X150249184Y-118072053D01*
X150249500Y-118080899D01*
X150249500Y-119350500D01*
X150229815Y-119417539D01*
X150177011Y-119463294D01*
X150125500Y-119474500D01*
X150100323Y-119474500D01*
X150027264Y-119489032D01*
X150027260Y-119489033D01*
X149944399Y-119544399D01*
X149889033Y-119627260D01*
X149889032Y-119627264D01*
X149874500Y-119700321D01*
X149874500Y-122249678D01*
X149889032Y-122322735D01*
X149889033Y-122322739D01*
X149889034Y-122322740D01*
X149944399Y-122405601D01*
X150027260Y-122460966D01*
X150027264Y-122460967D01*
X150100321Y-122475499D01*
X150100324Y-122475500D01*
X150100326Y-122475500D01*
X151149676Y-122475500D01*
X151149677Y-122475499D01*
X151222740Y-122460966D01*
X151305601Y-122405601D01*
X151360966Y-122322740D01*
X151375500Y-122249674D01*
X151375500Y-119700326D01*
X151375500Y-119700323D01*
X151375499Y-119700321D01*
X151360967Y-119627264D01*
X151360966Y-119627260D01*
X151305601Y-119544399D01*
X151222740Y-119489034D01*
X151222739Y-119489033D01*
X151222735Y-119489032D01*
X151149677Y-119474500D01*
X151149674Y-119474500D01*
X151124500Y-119474500D01*
X151057461Y-119454815D01*
X151011706Y-119402011D01*
X151000500Y-119350500D01*
X151000500Y-115825566D01*
X151000500Y-115825565D01*
X151000500Y-115825564D01*
X150974911Y-115730063D01*
X150925475Y-115644438D01*
X150036819Y-114755782D01*
X150003334Y-114694459D01*
X150000500Y-114668101D01*
X150000500Y-104973389D01*
X150574500Y-104973389D01*
X150574500Y-105146611D01*
X150601598Y-105317701D01*
X150655127Y-105482445D01*
X150733768Y-105636788D01*
X150835586Y-105776928D01*
X150958072Y-105899414D01*
X151037186Y-105956894D01*
X151098207Y-106001229D01*
X151098209Y-106001230D01*
X151098212Y-106001232D01*
X151181795Y-106043819D01*
X151232590Y-106091792D01*
X151249500Y-106154303D01*
X151249500Y-106174435D01*
X151275090Y-106269938D01*
X151275091Y-106269939D01*
X151275091Y-106269940D01*
X151324526Y-106355563D01*
X152213181Y-107244218D01*
X152246666Y-107305541D01*
X152249500Y-107331899D01*
X152249500Y-110043101D01*
X152229815Y-110110140D01*
X152213181Y-110130782D01*
X151324526Y-111019436D01*
X151275091Y-111105059D01*
X151275091Y-111105060D01*
X151275090Y-111105062D01*
X151249500Y-111200565D01*
X151249500Y-111200567D01*
X151249500Y-113674436D01*
X151262277Y-113722123D01*
X151262295Y-113722185D01*
X151275091Y-113769940D01*
X151324526Y-113855563D01*
X152213181Y-114744218D01*
X152246666Y-114805541D01*
X152249500Y-114831899D01*
X152249500Y-119350500D01*
X152229815Y-119417539D01*
X152177011Y-119463294D01*
X152125500Y-119474500D01*
X152100323Y-119474500D01*
X152027264Y-119489032D01*
X152027260Y-119489033D01*
X151944399Y-119544399D01*
X151889033Y-119627260D01*
X151889032Y-119627264D01*
X151874500Y-119700321D01*
X151874500Y-122249678D01*
X151889032Y-122322735D01*
X151889033Y-122322739D01*
X151889034Y-122322740D01*
X151944399Y-122405601D01*
X152027260Y-122460966D01*
X152027264Y-122460967D01*
X152100321Y-122475499D01*
X152100324Y-122475500D01*
X152100326Y-122475500D01*
X153149676Y-122475500D01*
X153149677Y-122475499D01*
X153222740Y-122460966D01*
X153305601Y-122405601D01*
X153360966Y-122322740D01*
X153375500Y-122249674D01*
X153375500Y-119700326D01*
X153375500Y-119700323D01*
X153375499Y-119700321D01*
X153360967Y-119627264D01*
X153360966Y-119627260D01*
X153305601Y-119544399D01*
X153222740Y-119489034D01*
X153222739Y-119489033D01*
X153222735Y-119489032D01*
X153149677Y-119474500D01*
X153149674Y-119474500D01*
X153124500Y-119474500D01*
X153057461Y-119454815D01*
X153011706Y-119402011D01*
X153000500Y-119350500D01*
X153000500Y-114575566D01*
X153000499Y-114575558D01*
X153000228Y-114574547D01*
X153000228Y-114574548D01*
X152998530Y-114568214D01*
X152974911Y-114480063D01*
X152925475Y-114394438D01*
X152036819Y-113505782D01*
X152003334Y-113444459D01*
X152000500Y-113418101D01*
X152000500Y-111456899D01*
X152020185Y-111389860D01*
X152036819Y-111369218D01*
X152456512Y-110949525D01*
X152925475Y-110480562D01*
X152974911Y-110394937D01*
X153000500Y-110299436D01*
X153000500Y-110200564D01*
X153000500Y-107075565D01*
X153000500Y-107075564D01*
X152974911Y-106980063D01*
X152925475Y-106894438D01*
X152226900Y-106195863D01*
X152193415Y-106134540D01*
X152198399Y-106064848D01*
X152240271Y-106008915D01*
X152249808Y-106002444D01*
X152251771Y-106001240D01*
X152251788Y-106001232D01*
X152391928Y-105899414D01*
X152514414Y-105776928D01*
X152616232Y-105636788D01*
X152694873Y-105482445D01*
X152748402Y-105317701D01*
X152775500Y-105146611D01*
X152775500Y-104973389D01*
X152748402Y-104802299D01*
X152694873Y-104637555D01*
X152616232Y-104483212D01*
X152514414Y-104343072D01*
X152391928Y-104220586D01*
X152251788Y-104118768D01*
X152097445Y-104040127D01*
X151932701Y-103986598D01*
X151932699Y-103986597D01*
X151932698Y-103986597D01*
X151801271Y-103965781D01*
X151761611Y-103959500D01*
X151588389Y-103959500D01*
X151548728Y-103965781D01*
X151417302Y-103986597D01*
X151252552Y-104040128D01*
X151098211Y-104118768D01*
X151018256Y-104176859D01*
X150958072Y-104220586D01*
X150958070Y-104220588D01*
X150958069Y-104220588D01*
X150835588Y-104343069D01*
X150835588Y-104343070D01*
X150835586Y-104343072D01*
X150791859Y-104403256D01*
X150733768Y-104483211D01*
X150655128Y-104637552D01*
X150601597Y-104802302D01*
X150574500Y-104973389D01*
X150000500Y-104973389D01*
X150000500Y-103331899D01*
X150020185Y-103264860D01*
X150036819Y-103244218D01*
X150379218Y-102901819D01*
X150406145Y-102887115D01*
X150431964Y-102870523D01*
X150438164Y-102869631D01*
X150440541Y-102868334D01*
X150466899Y-102865500D01*
X150540401Y-102865500D01*
X150607440Y-102885185D01*
X150653195Y-102937989D01*
X150654964Y-102942052D01*
X150655126Y-102942444D01*
X150655127Y-102942445D01*
X150733768Y-103096788D01*
X150835586Y-103236928D01*
X150958072Y-103359414D01*
X151098212Y-103461232D01*
X151252555Y-103539873D01*
X151417299Y-103593402D01*
X151588389Y-103620500D01*
X151588390Y-103620500D01*
X151761610Y-103620500D01*
X151761611Y-103620500D01*
X151932701Y-103593402D01*
X152097445Y-103539873D01*
X152251788Y-103461232D01*
X152391928Y-103359414D01*
X152514414Y-103236928D01*
X152616232Y-103096788D01*
X152694873Y-102942445D01*
X152748402Y-102777701D01*
X152775500Y-102606611D01*
X152775500Y-102433389D01*
X152748402Y-102262299D01*
X152694873Y-102097555D01*
X152616232Y-101943212D01*
X152514414Y-101803072D01*
X152391928Y-101680586D01*
X152251788Y-101578768D01*
X152097445Y-101500127D01*
X151932701Y-101446598D01*
X151932699Y-101446597D01*
X151932698Y-101446597D01*
X151801271Y-101425781D01*
X151761611Y-101419500D01*
X151588389Y-101419500D01*
X151548728Y-101425781D01*
X151417302Y-101446597D01*
X151252552Y-101500128D01*
X151098211Y-101578768D01*
X151018256Y-101636859D01*
X150958072Y-101680586D01*
X150958070Y-101680588D01*
X150958069Y-101680588D01*
X150835588Y-101803069D01*
X150835588Y-101803070D01*
X150835586Y-101803072D01*
X150791859Y-101863256D01*
X150733768Y-101943211D01*
X150680990Y-102046795D01*
X150633015Y-102097591D01*
X150570505Y-102114500D01*
X150210564Y-102114500D01*
X150115061Y-102140089D01*
X150029438Y-102189525D01*
X150029435Y-102189527D01*
X149712181Y-102506782D01*
X149650858Y-102540267D01*
X149581166Y-102535283D01*
X149525233Y-102493411D01*
X149500816Y-102427947D01*
X149500500Y-102419101D01*
X149500500Y-100831899D01*
X149520185Y-100764860D01*
X149536819Y-100744218D01*
X149919218Y-100361819D01*
X149980541Y-100328334D01*
X150006899Y-100325500D01*
X150540401Y-100325500D01*
X150607440Y-100345185D01*
X150653195Y-100397989D01*
X150654964Y-100402052D01*
X150655126Y-100402444D01*
X150655127Y-100402445D01*
X150733768Y-100556788D01*
X150835586Y-100696928D01*
X150958072Y-100819414D01*
X151098212Y-100921232D01*
X151252555Y-100999873D01*
X151417299Y-101053402D01*
X151588389Y-101080500D01*
X151588390Y-101080500D01*
X151761610Y-101080500D01*
X151761611Y-101080500D01*
X151932701Y-101053402D01*
X152097445Y-100999873D01*
X152251788Y-100921232D01*
X152391928Y-100819414D01*
X152514414Y-100696928D01*
X152616232Y-100556788D01*
X152694873Y-100402445D01*
X152748402Y-100237701D01*
X152775500Y-100066611D01*
X152775500Y-99893389D01*
X152748402Y-99722299D01*
X152694873Y-99557555D01*
X152616232Y-99403212D01*
X152514414Y-99263072D01*
X152391928Y-99140586D01*
X152251788Y-99038768D01*
X152097445Y-98960127D01*
X151932701Y-98906598D01*
X151932699Y-98906597D01*
X151932698Y-98906597D01*
X151801271Y-98885781D01*
X151761611Y-98879500D01*
X151588389Y-98879500D01*
X151548728Y-98885781D01*
X151417302Y-98906597D01*
X151252552Y-98960128D01*
X151098211Y-99038768D01*
X151085454Y-99048037D01*
X150958072Y-99140586D01*
X150958070Y-99140588D01*
X150958069Y-99140588D01*
X150835588Y-99263069D01*
X150835588Y-99263070D01*
X150835586Y-99263072D01*
X150791859Y-99323256D01*
X150733768Y-99403211D01*
X150680990Y-99506795D01*
X150633015Y-99557591D01*
X150570505Y-99574500D01*
X149750564Y-99574500D01*
X149702812Y-99587295D01*
X149702811Y-99587294D01*
X149655063Y-99600089D01*
X149655062Y-99600089D01*
X149569435Y-99649527D01*
X149212181Y-100006782D01*
X149150858Y-100040267D01*
X149081166Y-100035283D01*
X149025233Y-99993411D01*
X149000816Y-99927947D01*
X149000500Y-99919101D01*
X149000500Y-99099399D01*
X149020185Y-99032360D01*
X149036819Y-99011718D01*
X150226718Y-97821819D01*
X150253645Y-97807115D01*
X150279464Y-97790523D01*
X150285664Y-97789631D01*
X150288041Y-97788334D01*
X150314399Y-97785500D01*
X150540401Y-97785500D01*
X150607440Y-97805185D01*
X150653195Y-97857989D01*
X150654964Y-97862052D01*
X150655126Y-97862444D01*
X150655127Y-97862445D01*
X150733768Y-98016788D01*
X150835586Y-98156928D01*
X150958072Y-98279414D01*
X151098212Y-98381232D01*
X151252555Y-98459873D01*
X151417299Y-98513402D01*
X151588389Y-98540500D01*
X151588390Y-98540500D01*
X151761610Y-98540500D01*
X151761611Y-98540500D01*
X151932701Y-98513402D01*
X152097445Y-98459873D01*
X152251788Y-98381232D01*
X152391928Y-98279414D01*
X152514414Y-98156928D01*
X152616232Y-98016788D01*
X152694873Y-97862445D01*
X152748402Y-97697701D01*
X152775500Y-97526611D01*
X152775500Y-97353389D01*
X152748402Y-97182299D01*
X152694873Y-97017555D01*
X152616232Y-96863212D01*
X152514414Y-96723072D01*
X152391928Y-96600586D01*
X152251788Y-96498768D01*
X152097445Y-96420127D01*
X151932701Y-96366598D01*
X151932699Y-96366597D01*
X151932698Y-96366597D01*
X151786632Y-96343463D01*
X151761611Y-96339500D01*
X151588389Y-96339500D01*
X151563368Y-96343463D01*
X151417302Y-96366597D01*
X151252552Y-96420128D01*
X151098211Y-96498768D01*
X151045839Y-96536819D01*
X150958072Y-96600586D01*
X150958070Y-96600588D01*
X150958069Y-96600588D01*
X150835588Y-96723069D01*
X150835588Y-96723070D01*
X150835586Y-96723072D01*
X150805225Y-96764860D01*
X150733768Y-96863211D01*
X150680990Y-96966795D01*
X150633015Y-97017591D01*
X150570505Y-97034500D01*
X150058064Y-97034500D01*
X149962561Y-97060089D01*
X149876938Y-97109525D01*
X149876935Y-97109527D01*
X148712181Y-98274282D01*
X148650858Y-98307767D01*
X148581166Y-98302783D01*
X148525233Y-98260911D01*
X148500816Y-98195447D01*
X148500500Y-98186601D01*
X148500500Y-96581899D01*
X148520185Y-96514860D01*
X148536819Y-96494218D01*
X149749218Y-95281819D01*
X149810541Y-95248334D01*
X149836899Y-95245500D01*
X150540401Y-95245500D01*
X150607440Y-95265185D01*
X150653195Y-95317989D01*
X150654964Y-95322052D01*
X150655126Y-95322444D01*
X150655127Y-95322445D01*
X150733768Y-95476788D01*
X150835586Y-95616928D01*
X150958072Y-95739414D01*
X151098212Y-95841232D01*
X151252555Y-95919873D01*
X151417299Y-95973402D01*
X151588389Y-96000500D01*
X151588390Y-96000500D01*
X151761610Y-96000500D01*
X151761611Y-96000500D01*
X151932701Y-95973402D01*
X152097445Y-95919873D01*
X152251788Y-95841232D01*
X152391928Y-95739414D01*
X152514414Y-95616928D01*
X152616232Y-95476788D01*
X152694873Y-95322445D01*
X152748402Y-95157701D01*
X152775500Y-94986611D01*
X152775500Y-94813389D01*
X152748402Y-94642299D01*
X152694873Y-94477555D01*
X152616232Y-94323212D01*
X152514414Y-94183072D01*
X152391928Y-94060586D01*
X152251788Y-93958768D01*
X152097445Y-93880127D01*
X151932701Y-93826598D01*
X151932699Y-93826597D01*
X151932698Y-93826597D01*
X151801271Y-93805781D01*
X151761611Y-93799500D01*
X151588389Y-93799500D01*
X151548728Y-93805781D01*
X151417302Y-93826597D01*
X151252552Y-93880128D01*
X151098211Y-93958768D01*
X151033504Y-94005781D01*
X150958072Y-94060586D01*
X150958070Y-94060588D01*
X150958069Y-94060588D01*
X150835588Y-94183069D01*
X150835588Y-94183070D01*
X150835586Y-94183072D01*
X150791859Y-94243256D01*
X150733768Y-94323211D01*
X150680990Y-94426795D01*
X150633015Y-94477591D01*
X150570505Y-94494500D01*
X149580564Y-94494500D01*
X149532812Y-94507295D01*
X149532811Y-94507294D01*
X149485063Y-94520089D01*
X149485062Y-94520089D01*
X149399435Y-94569527D01*
X148212181Y-95756782D01*
X148150858Y-95790267D01*
X148081166Y-95785283D01*
X148025233Y-95743411D01*
X148000816Y-95677947D01*
X148000500Y-95669101D01*
X148000500Y-93581899D01*
X148020185Y-93514860D01*
X148036819Y-93494218D01*
X148789218Y-92741819D01*
X148850541Y-92708334D01*
X148876899Y-92705500D01*
X150540401Y-92705500D01*
X150607440Y-92725185D01*
X150653195Y-92777989D01*
X150654964Y-92782052D01*
X150655126Y-92782444D01*
X150655127Y-92782445D01*
X150733768Y-92936788D01*
X150835586Y-93076928D01*
X150958072Y-93199414D01*
X151098212Y-93301232D01*
X151252555Y-93379873D01*
X151417299Y-93433402D01*
X151588389Y-93460500D01*
X151588390Y-93460500D01*
X151761610Y-93460500D01*
X151761611Y-93460500D01*
X151932701Y-93433402D01*
X152097445Y-93379873D01*
X152251788Y-93301232D01*
X152391928Y-93199414D01*
X152514414Y-93076928D01*
X152616232Y-92936788D01*
X152694873Y-92782445D01*
X152748402Y-92617701D01*
X152775500Y-92446611D01*
X152775500Y-92273389D01*
X152748402Y-92102299D01*
X152694873Y-91937555D01*
X152616232Y-91783212D01*
X152514414Y-91643072D01*
X152391928Y-91520586D01*
X152251788Y-91418768D01*
X152097445Y-91340127D01*
X151932701Y-91286598D01*
X151932699Y-91286597D01*
X151932698Y-91286597D01*
X151801271Y-91265781D01*
X151761611Y-91259500D01*
X151588389Y-91259500D01*
X151548728Y-91265781D01*
X151417302Y-91286597D01*
X151252552Y-91340128D01*
X151098211Y-91418768D01*
X151075953Y-91434940D01*
X150958072Y-91520586D01*
X150958070Y-91520588D01*
X150958069Y-91520588D01*
X150835588Y-91643069D01*
X150835588Y-91643070D01*
X150835586Y-91643072D01*
X150791859Y-91703256D01*
X150733768Y-91783211D01*
X150680990Y-91886795D01*
X150633015Y-91937591D01*
X150570505Y-91954500D01*
X148875899Y-91954500D01*
X148808860Y-91934815D01*
X148763105Y-91882011D01*
X148753161Y-91812853D01*
X148782186Y-91749297D01*
X148788218Y-91742819D01*
X148887968Y-91643069D01*
X149010474Y-91520563D01*
X149010475Y-91520562D01*
X149059910Y-91434938D01*
X149085500Y-91339435D01*
X149085500Y-90581899D01*
X149105185Y-90514860D01*
X149121819Y-90494218D01*
X149414218Y-90201819D01*
X149475541Y-90168334D01*
X149501899Y-90165500D01*
X150540401Y-90165500D01*
X150607440Y-90185185D01*
X150653195Y-90237989D01*
X150654964Y-90242052D01*
X150655126Y-90242444D01*
X150655127Y-90242445D01*
X150733768Y-90396788D01*
X150835586Y-90536928D01*
X150958072Y-90659414D01*
X151098212Y-90761232D01*
X151252555Y-90839873D01*
X151417299Y-90893402D01*
X151588389Y-90920500D01*
X151588390Y-90920500D01*
X151761610Y-90920500D01*
X151761611Y-90920500D01*
X151932701Y-90893402D01*
X152097445Y-90839873D01*
X152251788Y-90761232D01*
X152391928Y-90659414D01*
X152514414Y-90536928D01*
X152616232Y-90396788D01*
X152694873Y-90242445D01*
X152748402Y-90077701D01*
X152775500Y-89906611D01*
X152775500Y-89733389D01*
X152748402Y-89562299D01*
X152694873Y-89397555D01*
X152616232Y-89243212D01*
X152514414Y-89103072D01*
X152391928Y-88980586D01*
X152251788Y-88878768D01*
X152097445Y-88800127D01*
X151932701Y-88746598D01*
X151932699Y-88746597D01*
X151932698Y-88746597D01*
X151801271Y-88725781D01*
X151761611Y-88719500D01*
X151588389Y-88719500D01*
X151548728Y-88725781D01*
X151417302Y-88746597D01*
X151252552Y-88800128D01*
X151098211Y-88878768D01*
X151018256Y-88936859D01*
X150958072Y-88980586D01*
X150958070Y-88980588D01*
X150958069Y-88980588D01*
X150835588Y-89103069D01*
X150835588Y-89103070D01*
X150835586Y-89103072D01*
X150805533Y-89144436D01*
X150733768Y-89243211D01*
X150680990Y-89346795D01*
X150633015Y-89397591D01*
X150570505Y-89414500D01*
X149245563Y-89414500D01*
X149208482Y-89424436D01*
X149208481Y-89424435D01*
X149150063Y-89440089D01*
X149150062Y-89440089D01*
X149064435Y-89489527D01*
X148712181Y-89841782D01*
X148692744Y-89852394D01*
X148676011Y-89866895D01*
X148662679Y-89868811D01*
X148650858Y-89875267D01*
X148628771Y-89873687D01*
X148606853Y-89876839D01*
X148594601Y-89871243D01*
X148581166Y-89870283D01*
X148563439Y-89857012D01*
X148543297Y-89847814D01*
X148536014Y-89836482D01*
X148525233Y-89828411D01*
X148517495Y-89807665D01*
X148505523Y-89789036D01*
X148502371Y-89767117D01*
X148500816Y-89762947D01*
X148500500Y-89754101D01*
X148500500Y-89581899D01*
X148520185Y-89514860D01*
X148536819Y-89494218D01*
X149341537Y-88689500D01*
X150362821Y-87668216D01*
X150424142Y-87634733D01*
X150493834Y-87639717D01*
X150549767Y-87681589D01*
X150574184Y-87747053D01*
X150574500Y-87755899D01*
X150574500Y-88154678D01*
X150589032Y-88227735D01*
X150589033Y-88227739D01*
X150589034Y-88227740D01*
X150644399Y-88310601D01*
X150727260Y-88365966D01*
X150727264Y-88365967D01*
X150800321Y-88380499D01*
X150800324Y-88380500D01*
X150800326Y-88380500D01*
X152549676Y-88380500D01*
X152549677Y-88380499D01*
X152622740Y-88365966D01*
X152705601Y-88310601D01*
X152760966Y-88227740D01*
X152775500Y-88154674D01*
X152775500Y-86405326D01*
X152775500Y-86405323D01*
X152775499Y-86405321D01*
X152760967Y-86332264D01*
X152760966Y-86332260D01*
X152705601Y-86249399D01*
X152622740Y-86194034D01*
X152622739Y-86194033D01*
X152622735Y-86194032D01*
X152549677Y-86179500D01*
X152549674Y-86179500D01*
X150800326Y-86179500D01*
X150800323Y-86179500D01*
X150727264Y-86194032D01*
X150727260Y-86194033D01*
X150644399Y-86249399D01*
X150589033Y-86332260D01*
X150589032Y-86332264D01*
X150574500Y-86405321D01*
X150574500Y-86750500D01*
X150554815Y-86817539D01*
X150502011Y-86863294D01*
X150450500Y-86874500D01*
X150200564Y-86874500D01*
X150105063Y-86900089D01*
X150105060Y-86900090D01*
X150019440Y-86949522D01*
X150019435Y-86949526D01*
X147894438Y-89074525D01*
X147824526Y-89144436D01*
X147775091Y-89230059D01*
X147775091Y-89230060D01*
X147775090Y-89230062D01*
X147749500Y-89325565D01*
X147749500Y-89325567D01*
X147749500Y-90668101D01*
X147729815Y-90735140D01*
X147713181Y-90755782D01*
X146324526Y-92144436D01*
X146275091Y-92230059D01*
X146275091Y-92230060D01*
X146275090Y-92230062D01*
X146249500Y-92325565D01*
X146249500Y-92325567D01*
X146249500Y-112668100D01*
X146229815Y-112735139D01*
X146213181Y-112755781D01*
X146005782Y-112963181D01*
X145944459Y-112996666D01*
X145918101Y-112999500D01*
X139325564Y-112999500D01*
X139277812Y-113012295D01*
X139277811Y-113012294D01*
X139230063Y-113025089D01*
X139230062Y-113025089D01*
X139144435Y-113074527D01*
X138324527Y-113894435D01*
X138275090Y-113980062D01*
X138275090Y-113980063D01*
X138249779Y-114074525D01*
X138249771Y-114074552D01*
X138249500Y-114075560D01*
X138249500Y-119350500D01*
X138229815Y-119417539D01*
X138177011Y-119463294D01*
X138125500Y-119474500D01*
X138100323Y-119474500D01*
X138027264Y-119489032D01*
X138027260Y-119489033D01*
X137944399Y-119544399D01*
X137889033Y-119627260D01*
X137889032Y-119627264D01*
X137874500Y-119700321D01*
X137125500Y-119700321D01*
X137125500Y-103360899D01*
X137145185Y-103293860D01*
X137197989Y-103248105D01*
X137267147Y-103238161D01*
X137330703Y-103267186D01*
X137337181Y-103273218D01*
X138567677Y-104503714D01*
X138601162Y-104565037D01*
X138597927Y-104629713D01*
X138551597Y-104772301D01*
X138524500Y-104943389D01*
X138524500Y-105116611D01*
X138551598Y-105287701D01*
X138605127Y-105452445D01*
X138683768Y-105606788D01*
X138785586Y-105746928D01*
X138908072Y-105869414D01*
X139048212Y-105971232D01*
X139202555Y-106049873D01*
X139367299Y-106103402D01*
X139538389Y-106130500D01*
X139538390Y-106130500D01*
X139711610Y-106130500D01*
X139711611Y-106130500D01*
X139882701Y-106103402D01*
X140047445Y-106049873D01*
X140201788Y-105971232D01*
X140341928Y-105869414D01*
X140464414Y-105746928D01*
X140566232Y-105606788D01*
X140644873Y-105452445D01*
X140698402Y-105287701D01*
X140725500Y-105116611D01*
X140725500Y-104943389D01*
X140698402Y-104772299D01*
X140644873Y-104607555D01*
X140566232Y-104453212D01*
X140464414Y-104313072D01*
X140341928Y-104190586D01*
X140201788Y-104088768D01*
X140047445Y-104010127D01*
X139882701Y-103956598D01*
X139882699Y-103956597D01*
X139882698Y-103956597D01*
X139751271Y-103935781D01*
X139711611Y-103929500D01*
X139538389Y-103929500D01*
X139506192Y-103934599D01*
X139367301Y-103956597D01*
X139224713Y-104002927D01*
X139154872Y-104004922D01*
X139098714Y-103972677D01*
X137786819Y-102660782D01*
X137772115Y-102633854D01*
X137755523Y-102608036D01*
X137754631Y-102601835D01*
X137753334Y-102599459D01*
X137750500Y-102573101D01*
X137750500Y-102403389D01*
X138524500Y-102403389D01*
X138524500Y-102576611D01*
X138551598Y-102747701D01*
X138605127Y-102912445D01*
X138683768Y-103066788D01*
X138785586Y-103206928D01*
X138908072Y-103329414D01*
X139048212Y-103431232D01*
X139202555Y-103509873D01*
X139367299Y-103563402D01*
X139538389Y-103590500D01*
X139538390Y-103590500D01*
X139711610Y-103590500D01*
X139711611Y-103590500D01*
X139882701Y-103563402D01*
X140047445Y-103509873D01*
X140201788Y-103431232D01*
X140341928Y-103329414D01*
X140464414Y-103206928D01*
X140566232Y-103066788D01*
X140644873Y-102912445D01*
X140698402Y-102747701D01*
X140725500Y-102576611D01*
X140725500Y-102403389D01*
X140698402Y-102232299D01*
X140644873Y-102067555D01*
X140566232Y-101913212D01*
X140464414Y-101773072D01*
X140341928Y-101650586D01*
X140201788Y-101548768D01*
X140047445Y-101470127D01*
X139882701Y-101416598D01*
X139882699Y-101416597D01*
X139882698Y-101416597D01*
X139751271Y-101395781D01*
X139711611Y-101389500D01*
X139538389Y-101389500D01*
X139498728Y-101395781D01*
X139367302Y-101416597D01*
X139202552Y-101470128D01*
X139048211Y-101548768D01*
X138968256Y-101606859D01*
X138908072Y-101650586D01*
X138908070Y-101650588D01*
X138908069Y-101650588D01*
X138785588Y-101773069D01*
X138785588Y-101773070D01*
X138785586Y-101773072D01*
X138763792Y-101803069D01*
X138683768Y-101913211D01*
X138605128Y-102067552D01*
X138551597Y-102232302D01*
X138546846Y-102262299D01*
X138524500Y-102403389D01*
X137750500Y-102403389D01*
X137750500Y-99863389D01*
X138524500Y-99863389D01*
X138524500Y-100036611D01*
X138551598Y-100207701D01*
X138605127Y-100372445D01*
X138683768Y-100526788D01*
X138785586Y-100666928D01*
X138908072Y-100789414D01*
X139048212Y-100891232D01*
X139202555Y-100969873D01*
X139367299Y-101023402D01*
X139538389Y-101050500D01*
X139538390Y-101050500D01*
X139711610Y-101050500D01*
X139711611Y-101050500D01*
X139882701Y-101023402D01*
X140047445Y-100969873D01*
X140201788Y-100891232D01*
X140341928Y-100789414D01*
X140464414Y-100666928D01*
X140566232Y-100526788D01*
X140644873Y-100372445D01*
X140698402Y-100207701D01*
X140725500Y-100036611D01*
X140725500Y-99863389D01*
X140698402Y-99692299D01*
X140644873Y-99527555D01*
X140566232Y-99373212D01*
X140464414Y-99233072D01*
X140341928Y-99110586D01*
X140201788Y-99008768D01*
X140047445Y-98930127D01*
X139882701Y-98876598D01*
X139882699Y-98876597D01*
X139882698Y-98876597D01*
X139751271Y-98855781D01*
X139711611Y-98849500D01*
X139538389Y-98849500D01*
X139498728Y-98855781D01*
X139367302Y-98876597D01*
X139202552Y-98930128D01*
X139048211Y-99008768D01*
X138994163Y-99048037D01*
X138908072Y-99110586D01*
X138908070Y-99110588D01*
X138908069Y-99110588D01*
X138785588Y-99233069D01*
X138785588Y-99233070D01*
X138785586Y-99233072D01*
X138763792Y-99263069D01*
X138683768Y-99373211D01*
X138605128Y-99527552D01*
X138551597Y-99692302D01*
X138546846Y-99722299D01*
X138524500Y-99863389D01*
X137750500Y-99863389D01*
X137750500Y-96831899D01*
X137770185Y-96764860D01*
X137786819Y-96744218D01*
X137994219Y-96536819D01*
X138055542Y-96503334D01*
X138081900Y-96500500D01*
X138840915Y-96500500D01*
X138907954Y-96520185D01*
X138928596Y-96536819D01*
X139371047Y-96979270D01*
X139317993Y-97009901D01*
X139224901Y-97102993D01*
X139194270Y-97156047D01*
X138786723Y-96748500D01*
X138745932Y-96748500D01*
X138684196Y-96833474D01*
X138684195Y-96833476D01*
X138605591Y-96987742D01*
X138552085Y-97152415D01*
X138525000Y-97323428D01*
X138525000Y-97496571D01*
X138552085Y-97667584D01*
X138605591Y-97832257D01*
X138684194Y-97986521D01*
X138763097Y-98095124D01*
X139194269Y-97663952D01*
X139224901Y-97717007D01*
X139317993Y-97810099D01*
X139371046Y-97840729D01*
X138939874Y-98271901D01*
X139048478Y-98350805D01*
X139202742Y-98429408D01*
X139367415Y-98482914D01*
X139538429Y-98510000D01*
X139711571Y-98510000D01*
X139882584Y-98482914D01*
X140047257Y-98429408D01*
X140201528Y-98350801D01*
X140310124Y-98271902D01*
X140310125Y-98271901D01*
X139878953Y-97840729D01*
X139932007Y-97810099D01*
X140025099Y-97717007D01*
X140055729Y-97663953D01*
X140486901Y-98095125D01*
X140486902Y-98095124D01*
X140565801Y-97986528D01*
X140644408Y-97832257D01*
X140697914Y-97667584D01*
X140725000Y-97496571D01*
X140725000Y-97323428D01*
X140697914Y-97152415D01*
X140644408Y-96987742D01*
X140565805Y-96833478D01*
X140486901Y-96724874D01*
X140055729Y-97156046D01*
X140025099Y-97102993D01*
X139932007Y-97009901D01*
X139878952Y-96979270D01*
X140310124Y-96548098D01*
X140308893Y-96532458D01*
X140323256Y-96464080D01*
X140350557Y-96431964D01*
X140349815Y-96431222D01*
X141334249Y-95446788D01*
X142425474Y-94355563D01*
X142444152Y-94323212D01*
X142474910Y-94269938D01*
X142500500Y-94174435D01*
X142500500Y-90581899D01*
X142520185Y-90514860D01*
X142536819Y-90494218D01*
X149244218Y-83786819D01*
X149305541Y-83753334D01*
X149331899Y-83750500D01*
X153424435Y-83750500D01*
X153424436Y-83750500D01*
X153472186Y-83737705D01*
X153519938Y-83724910D01*
X153605562Y-83675475D01*
X153675475Y-83605562D01*
X153675474Y-83605562D01*
X153734043Y-83546993D01*
X153912820Y-83368216D01*
X153974142Y-83334732D01*
X154043834Y-83339716D01*
G37*
%TD.AperFunction*%
%TA.AperFunction,Conductor*%
G36*
X154067539Y-61895185D02*
G01*
X154113294Y-61947989D01*
X154124500Y-61999500D01*
X154124500Y-64303787D01*
X154104815Y-64370826D01*
X154052011Y-64416581D01*
X153982853Y-64426525D01*
X153919297Y-64397500D01*
X153885939Y-64351240D01*
X153853390Y-64272660D01*
X153853385Y-64272651D01*
X153727350Y-64054352D01*
X153727339Y-64054335D01*
X153573889Y-63854357D01*
X153573882Y-63854349D01*
X153573155Y-63853622D01*
X153573154Y-63853622D01*
X153033436Y-64393339D01*
X153013612Y-64366054D01*
X152883946Y-64236388D01*
X152856659Y-64216563D01*
X153396377Y-63676845D01*
X153396377Y-63676844D01*
X153395650Y-63676117D01*
X153395642Y-63676110D01*
X153195664Y-63522660D01*
X153195647Y-63522649D01*
X152977348Y-63396614D01*
X152977339Y-63396610D01*
X152744456Y-63300146D01*
X152500962Y-63234902D01*
X152251050Y-63202001D01*
X152251033Y-63202000D01*
X151998967Y-63202000D01*
X151998949Y-63202001D01*
X151749037Y-63234902D01*
X151505543Y-63300146D01*
X151272660Y-63396610D01*
X151272651Y-63396614D01*
X151054352Y-63522649D01*
X151054335Y-63522660D01*
X150854361Y-63676107D01*
X150853622Y-63676845D01*
X151393340Y-64216563D01*
X151366054Y-64236388D01*
X151236388Y-64366054D01*
X151216563Y-64393340D01*
X150676845Y-63853622D01*
X150676107Y-63854361D01*
X150522660Y-64054335D01*
X150522649Y-64054352D01*
X150396614Y-64272651D01*
X150396610Y-64272660D01*
X150300146Y-64505543D01*
X150234902Y-64749037D01*
X150202001Y-64998949D01*
X150202000Y-64998966D01*
X150202000Y-65251033D01*
X150202001Y-65251050D01*
X150234902Y-65500962D01*
X150300146Y-65744456D01*
X150396610Y-65977339D01*
X150396614Y-65977348D01*
X150522649Y-66195647D01*
X150522660Y-66195664D01*
X150676110Y-66395642D01*
X150676117Y-66395650D01*
X150676844Y-66396377D01*
X150676845Y-66396377D01*
X151216563Y-65856659D01*
X151236388Y-65883946D01*
X151366054Y-66013612D01*
X151393339Y-66033436D01*
X150853622Y-66573154D01*
X150854349Y-66573882D01*
X150854357Y-66573889D01*
X151054335Y-66727339D01*
X151054352Y-66727350D01*
X151272651Y-66853385D01*
X151272660Y-66853389D01*
X151505543Y-66949853D01*
X151749037Y-67015097D01*
X151998949Y-67047998D01*
X151998967Y-67048000D01*
X152251033Y-67048000D01*
X152251050Y-67047998D01*
X152500962Y-67015097D01*
X152744456Y-66949853D01*
X152977339Y-66853389D01*
X152977348Y-66853385D01*
X153195647Y-66727350D01*
X153195654Y-66727345D01*
X153395642Y-66573889D01*
X153396377Y-66573154D01*
X153396376Y-66573152D01*
X152856660Y-66033436D01*
X152883946Y-66013612D01*
X153013612Y-65883946D01*
X153033436Y-65856660D01*
X153573152Y-66396376D01*
X153573154Y-66396377D01*
X153573889Y-66395642D01*
X153727345Y-66195654D01*
X153727350Y-66195647D01*
X153853385Y-65977348D01*
X153853389Y-65977339D01*
X153885939Y-65898759D01*
X153929780Y-65844356D01*
X153996074Y-65822291D01*
X154063773Y-65839570D01*
X154111384Y-65890707D01*
X154124500Y-65946212D01*
X154124500Y-79044101D01*
X154104815Y-79111140D01*
X154052011Y-79156895D01*
X153982853Y-79166839D01*
X153919297Y-79137814D01*
X153912819Y-79131782D01*
X153797692Y-79016655D01*
X153764207Y-78955332D01*
X153769191Y-78885640D01*
X153774884Y-78872686D01*
X153783884Y-78855025D01*
X153844709Y-78667826D01*
X153854662Y-78604983D01*
X153875500Y-78473422D01*
X153875500Y-78276577D01*
X153844709Y-78082173D01*
X153796659Y-77934292D01*
X153783884Y-77894975D01*
X153783882Y-77894972D01*
X153783882Y-77894970D01*
X153736743Y-77802455D01*
X153694524Y-77719595D01*
X153578828Y-77560354D01*
X153439646Y-77421172D01*
X153280405Y-77305476D01*
X153160179Y-77244218D01*
X153105028Y-77216117D01*
X153086178Y-77209992D01*
X153028504Y-77170552D01*
X153001308Y-77106193D01*
X153000500Y-77092062D01*
X153000500Y-73157937D01*
X153020185Y-73090898D01*
X153072989Y-73045143D01*
X153086186Y-73040005D01*
X153105025Y-73033884D01*
X153280405Y-72944524D01*
X153439646Y-72828828D01*
X153578828Y-72689646D01*
X153694524Y-72530405D01*
X153783884Y-72355025D01*
X153844709Y-72167826D01*
X153844728Y-72167705D01*
X153875500Y-71973422D01*
X153875500Y-71776577D01*
X153844709Y-71582173D01*
X153783882Y-71394970D01*
X153694658Y-71219858D01*
X153694524Y-71219595D01*
X153578828Y-71060354D01*
X153439646Y-70921172D01*
X153280405Y-70805476D01*
X153105029Y-70716117D01*
X152917826Y-70655290D01*
X152723422Y-70624500D01*
X152723417Y-70624500D01*
X152526583Y-70624500D01*
X152526578Y-70624500D01*
X152332173Y-70655290D01*
X152144970Y-70716117D01*
X151969594Y-70805476D01*
X151878741Y-70871485D01*
X151810354Y-70921172D01*
X151810352Y-70921174D01*
X151810351Y-70921174D01*
X151671174Y-71060351D01*
X151671174Y-71060352D01*
X151671172Y-71060354D01*
X151621485Y-71128741D01*
X151555476Y-71219594D01*
X151466117Y-71394970D01*
X151405290Y-71582173D01*
X151374500Y-71776577D01*
X151374500Y-71973422D01*
X151405290Y-72167826D01*
X151466117Y-72355029D01*
X151555338Y-72530135D01*
X151555476Y-72530405D01*
X151671172Y-72689646D01*
X151810354Y-72828828D01*
X151969595Y-72944524D01*
X152144975Y-73033884D01*
X152163814Y-73040005D01*
X152221491Y-73079440D01*
X152248691Y-73143798D01*
X152249500Y-73157937D01*
X152249500Y-77092062D01*
X152229815Y-77159101D01*
X152177011Y-77204856D01*
X152163822Y-77209992D01*
X152144971Y-77216117D01*
X151969594Y-77305476D01*
X151887270Y-77365289D01*
X151810354Y-77421172D01*
X151810352Y-77421174D01*
X151810351Y-77421174D01*
X151671174Y-77560351D01*
X151671174Y-77560352D01*
X151671172Y-77560354D01*
X151621485Y-77628741D01*
X151555476Y-77719594D01*
X151466117Y-77894970D01*
X151405290Y-78082173D01*
X151374500Y-78276577D01*
X151374500Y-78473422D01*
X151405290Y-78667826D01*
X151466117Y-78855029D01*
X151532424Y-78985163D01*
X151555476Y-79030405D01*
X151671172Y-79189646D01*
X151810354Y-79328828D01*
X151969595Y-79444524D01*
X152028427Y-79474500D01*
X152144970Y-79533882D01*
X152144972Y-79533882D01*
X152144975Y-79533884D01*
X152245317Y-79566487D01*
X152332173Y-79594709D01*
X152526578Y-79625500D01*
X152526583Y-79625500D01*
X152723422Y-79625500D01*
X152917826Y-79594709D01*
X152919328Y-79594221D01*
X153105025Y-79533884D01*
X153122677Y-79524889D01*
X153191344Y-79511992D01*
X153256085Y-79538266D01*
X153266655Y-79547692D01*
X153463181Y-79744218D01*
X153496666Y-79805541D01*
X153499500Y-79831899D01*
X153499500Y-80668635D01*
X153479815Y-80735674D01*
X153427011Y-80781429D01*
X153357853Y-80791373D01*
X153351310Y-80790253D01*
X153274624Y-80775000D01*
X152525000Y-80775000D01*
X152525000Y-81390855D01*
X152465826Y-81375000D01*
X152334174Y-81375000D01*
X152275000Y-81390855D01*
X152275000Y-80775000D01*
X151525373Y-80775000D01*
X151452459Y-80789503D01*
X151452455Y-80789505D01*
X151369760Y-80844760D01*
X151314505Y-80927455D01*
X151314503Y-80927459D01*
X151300000Y-81000371D01*
X151300000Y-81750000D01*
X151915856Y-81750000D01*
X151900000Y-81809174D01*
X151900000Y-81940826D01*
X151915856Y-82000000D01*
X151300000Y-82000000D01*
X151300000Y-82749628D01*
X151314503Y-82822542D01*
X151316783Y-82828045D01*
X151324253Y-82897514D01*
X151292980Y-82959994D01*
X151232892Y-82995648D01*
X151202223Y-82999500D01*
X150566174Y-82999500D01*
X150499135Y-82979815D01*
X150453380Y-82927011D01*
X150443436Y-82857853D01*
X150472461Y-82794297D01*
X150493288Y-82775182D01*
X150576928Y-82714414D01*
X150699414Y-82591928D01*
X150801232Y-82451788D01*
X150879873Y-82297445D01*
X150933402Y-82132701D01*
X150960500Y-81961611D01*
X150960500Y-81788389D01*
X150933402Y-81617299D01*
X150879873Y-81452555D01*
X150801232Y-81298212D01*
X150699414Y-81158072D01*
X150576928Y-81035586D01*
X150436788Y-80933768D01*
X150360499Y-80894897D01*
X150293205Y-80860609D01*
X150282140Y-80850159D01*
X150268297Y-80843837D01*
X150257255Y-80826656D01*
X150242409Y-80812634D01*
X150238167Y-80796954D01*
X150230523Y-80785059D01*
X150225500Y-80750124D01*
X150225500Y-80606899D01*
X150245185Y-80539860D01*
X150261819Y-80519218D01*
X150439646Y-80341391D01*
X150675474Y-80105563D01*
X150699760Y-80063499D01*
X150724910Y-80019938D01*
X150745595Y-79942740D01*
X150750500Y-79924436D01*
X150750500Y-79825564D01*
X150750500Y-77075565D01*
X150724910Y-76980062D01*
X150675475Y-76894438D01*
X150605562Y-76824525D01*
X149855563Y-76074526D01*
X149855562Y-76074525D01*
X149769938Y-76025090D01*
X149722186Y-76012295D01*
X149722184Y-76012294D01*
X149722182Y-76012293D01*
X149674436Y-75999500D01*
X149674435Y-75999500D01*
X144674436Y-75999500D01*
X144575564Y-75999500D01*
X144527812Y-76012295D01*
X144527811Y-76012294D01*
X144480063Y-76025089D01*
X144480062Y-76025089D01*
X144394435Y-76074527D01*
X143405782Y-77063181D01*
X143344459Y-77096666D01*
X143318101Y-77099500D01*
X140586917Y-77099500D01*
X140519878Y-77079815D01*
X140483815Y-77044391D01*
X140464649Y-77015708D01*
X140464646Y-77015704D01*
X140364295Y-76915353D01*
X140364291Y-76915350D01*
X140246288Y-76836502D01*
X140246285Y-76836501D01*
X140115163Y-76782189D01*
X140115155Y-76782187D01*
X139975965Y-76754500D01*
X139975963Y-76754500D01*
X139834037Y-76754500D01*
X139834035Y-76754500D01*
X139705614Y-76780045D01*
X139636022Y-76773818D01*
X139580845Y-76730955D01*
X139559805Y-76682619D01*
X139549253Y-76629575D01*
X139549251Y-76629567D01*
X139498747Y-76507638D01*
X139498745Y-76507635D01*
X139458848Y-76447926D01*
X139125000Y-76781775D01*
X139125000Y-76781239D01*
X139091507Y-76700380D01*
X139029620Y-76638493D01*
X138948761Y-76605000D01*
X138948224Y-76605000D01*
X139282072Y-76271150D01*
X139282072Y-76271149D01*
X139222362Y-76231253D01*
X139100432Y-76180748D01*
X139100426Y-76180746D01*
X138970991Y-76155000D01*
X138839009Y-76155000D01*
X138709573Y-76180746D01*
X138709567Y-76180748D01*
X138587637Y-76231253D01*
X138527925Y-76271150D01*
X138861777Y-76605000D01*
X138861239Y-76605000D01*
X138780380Y-76638493D01*
X138718493Y-76700380D01*
X138685000Y-76781239D01*
X138685000Y-76781775D01*
X138351150Y-76447925D01*
X138311253Y-76507637D01*
X138260748Y-76629567D01*
X138260746Y-76629573D01*
X138235000Y-76759008D01*
X138235000Y-76890991D01*
X138234999Y-76890991D01*
X138260746Y-77020426D01*
X138260748Y-77020432D01*
X138311253Y-77142362D01*
X138351150Y-77202072D01*
X138685000Y-76868222D01*
X138685000Y-76868761D01*
X138718493Y-76949620D01*
X138780380Y-77011507D01*
X138861239Y-77045000D01*
X138861775Y-77045000D01*
X138527926Y-77378848D01*
X138532799Y-77428325D01*
X138519780Y-77496971D01*
X138478289Y-77543580D01*
X138445706Y-77565351D01*
X138345353Y-77665704D01*
X138345350Y-77665708D01*
X138266502Y-77783711D01*
X138266501Y-77783714D01*
X138212189Y-77914836D01*
X138212187Y-77914844D01*
X138184500Y-78054034D01*
X138184500Y-78054037D01*
X138184500Y-78195963D01*
X138184500Y-78195965D01*
X138184499Y-78195965D01*
X138212187Y-78335155D01*
X138212189Y-78335163D01*
X138266501Y-78466285D01*
X138266502Y-78466288D01*
X138345350Y-78584291D01*
X138345353Y-78584295D01*
X138366041Y-78604983D01*
X138399526Y-78666306D01*
X138394542Y-78735998D01*
X138352670Y-78791931D01*
X138347251Y-78795766D01*
X138304400Y-78824398D01*
X138249033Y-78907260D01*
X138249032Y-78907264D01*
X138234500Y-78980321D01*
X138234500Y-79136307D01*
X138225062Y-79183758D01*
X138212189Y-79214837D01*
X138212188Y-79214839D01*
X138184500Y-79354034D01*
X138184500Y-79354037D01*
X138184500Y-79495963D01*
X138184500Y-79495965D01*
X138184499Y-79495965D01*
X138212187Y-79635156D01*
X138212189Y-79635162D01*
X138225061Y-79666237D01*
X138234500Y-79713690D01*
X138234500Y-79869678D01*
X138249032Y-79942735D01*
X138249033Y-79942739D01*
X138249034Y-79942740D01*
X138304399Y-80025601D01*
X138387260Y-80080966D01*
X138387264Y-80080967D01*
X138460321Y-80095499D01*
X138460324Y-80095500D01*
X138460326Y-80095500D01*
X138616310Y-80095500D01*
X138663761Y-80104938D01*
X138694838Y-80117811D01*
X138694842Y-80117811D01*
X138694843Y-80117812D01*
X138834034Y-80145500D01*
X138834037Y-80145500D01*
X138866324Y-80145500D01*
X138933363Y-80165185D01*
X138954005Y-80181819D01*
X139047686Y-80275500D01*
X139161814Y-80341392D01*
X139289107Y-80375500D01*
X139289108Y-80375500D01*
X142866324Y-80375500D01*
X142895764Y-80384144D01*
X142925751Y-80390668D01*
X142930766Y-80394422D01*
X142933363Y-80395185D01*
X142954005Y-80411819D01*
X143073181Y-80530995D01*
X143106666Y-80592318D01*
X143109500Y-80618676D01*
X143109500Y-80818909D01*
X143089815Y-80885948D01*
X143041801Y-80929391D01*
X143033212Y-80933767D01*
X142942617Y-80999589D01*
X142893072Y-81035586D01*
X142893070Y-81035588D01*
X142893069Y-81035588D01*
X142770588Y-81158069D01*
X142770588Y-81158070D01*
X142770586Y-81158072D01*
X142757783Y-81175694D01*
X142668768Y-81298211D01*
X142590128Y-81452552D01*
X142536597Y-81617302D01*
X142509500Y-81788389D01*
X142509500Y-81961610D01*
X142536597Y-82132697D01*
X142536597Y-82132699D01*
X142536598Y-82132701D01*
X142590127Y-82297445D01*
X142668768Y-82451788D01*
X142770586Y-82591928D01*
X142893072Y-82714414D01*
X143033212Y-82816232D01*
X143187555Y-82894873D01*
X143352299Y-82948402D01*
X143523389Y-82975500D01*
X143523390Y-82975500D01*
X143696610Y-82975500D01*
X143696611Y-82975500D01*
X143867701Y-82948402D01*
X144032445Y-82894873D01*
X144186788Y-82816232D01*
X144326928Y-82714414D01*
X144449414Y-82591928D01*
X144551232Y-82451788D01*
X144629873Y-82297445D01*
X144683402Y-82132701D01*
X144710500Y-81961611D01*
X144710500Y-81788389D01*
X144683402Y-81617299D01*
X144629873Y-81452555D01*
X144551232Y-81298212D01*
X144449414Y-81158072D01*
X144326928Y-81035586D01*
X144278390Y-81000321D01*
X145049500Y-81000321D01*
X145049500Y-82749678D01*
X145064032Y-82822735D01*
X145064033Y-82822739D01*
X145082405Y-82850235D01*
X145119399Y-82905601D01*
X145200805Y-82959994D01*
X145202260Y-82960966D01*
X145202264Y-82960967D01*
X145275321Y-82975499D01*
X145275324Y-82975500D01*
X145275326Y-82975500D01*
X147024676Y-82975500D01*
X147024677Y-82975499D01*
X147097740Y-82960966D01*
X147180601Y-82905601D01*
X147235966Y-82822740D01*
X147250500Y-82749674D01*
X147250500Y-81000326D01*
X147250500Y-81000323D01*
X147250499Y-81000321D01*
X147235967Y-80927264D01*
X147235966Y-80927260D01*
X147214342Y-80894897D01*
X147180601Y-80844399D01*
X147125235Y-80807405D01*
X147097739Y-80789033D01*
X147097735Y-80789032D01*
X147024677Y-80774500D01*
X147024674Y-80774500D01*
X145275326Y-80774500D01*
X145275323Y-80774500D01*
X145202264Y-80789032D01*
X145202260Y-80789033D01*
X145119399Y-80844399D01*
X145064033Y-80927260D01*
X145064032Y-80927264D01*
X145049500Y-81000321D01*
X144278390Y-81000321D01*
X144186788Y-80933768D01*
X144186789Y-80933768D01*
X144186787Y-80933767D01*
X144178199Y-80929391D01*
X144127406Y-80881414D01*
X144110500Y-80818909D01*
X144110500Y-80294110D01*
X144110500Y-80294108D01*
X144076392Y-80166814D01*
X144075451Y-80165185D01*
X144064086Y-80145500D01*
X144010500Y-80052686D01*
X143917314Y-79959500D01*
X143432314Y-79474500D01*
X143375250Y-79441554D01*
X143318187Y-79408608D01*
X143254539Y-79391554D01*
X143190892Y-79374500D01*
X143190891Y-79374500D01*
X140602953Y-79374500D01*
X140535914Y-79354815D01*
X140490159Y-79302011D01*
X140480215Y-79232853D01*
X140499851Y-79181609D01*
X140516364Y-79156895D01*
X140543499Y-79116285D01*
X140597811Y-78985162D01*
X140623697Y-78855027D01*
X140625500Y-78845965D01*
X140625500Y-78704034D01*
X140601681Y-78584292D01*
X140597811Y-78564838D01*
X140543499Y-78433715D01*
X140543497Y-78433713D01*
X140543497Y-78433711D01*
X140486661Y-78348651D01*
X140486660Y-78348650D01*
X140464649Y-78315708D01*
X140425558Y-78276617D01*
X146875000Y-78276617D01*
X146875000Y-78473382D01*
X146905778Y-78667705D01*
X146966581Y-78854835D01*
X147055900Y-79030135D01*
X147055904Y-79030141D01*
X147155710Y-79167511D01*
X147155711Y-79167512D01*
X147657667Y-78665555D01*
X147684890Y-78712708D01*
X147787292Y-78815110D01*
X147834442Y-78842332D01*
X147332486Y-79344288D01*
X147469858Y-79444095D01*
X147469864Y-79444099D01*
X147645164Y-79533418D01*
X147832294Y-79594221D01*
X148026618Y-79625000D01*
X148223382Y-79625000D01*
X148417705Y-79594221D01*
X148604835Y-79533418D01*
X148780143Y-79444095D01*
X148917511Y-79344288D01*
X148917512Y-79344287D01*
X148415557Y-78842332D01*
X148462708Y-78815110D01*
X148565110Y-78712708D01*
X148592332Y-78665556D01*
X149094287Y-79167512D01*
X149094288Y-79167511D01*
X149194095Y-79030143D01*
X149283418Y-78854835D01*
X149344221Y-78667705D01*
X149375000Y-78473382D01*
X149375000Y-78276617D01*
X149344221Y-78082294D01*
X149283418Y-77895164D01*
X149194099Y-77719864D01*
X149194095Y-77719858D01*
X149094288Y-77582487D01*
X149094288Y-77582486D01*
X148592332Y-78084442D01*
X148565110Y-78037292D01*
X148462708Y-77934890D01*
X148415556Y-77907667D01*
X148917512Y-77405711D01*
X148917511Y-77405710D01*
X148780141Y-77305904D01*
X148780135Y-77305900D01*
X148604835Y-77216581D01*
X148417705Y-77155778D01*
X148223382Y-77125000D01*
X148026618Y-77125000D01*
X147832294Y-77155778D01*
X147645164Y-77216581D01*
X147469856Y-77305904D01*
X147332487Y-77405710D01*
X147332486Y-77405710D01*
X147834443Y-77907667D01*
X147787292Y-77934890D01*
X147684890Y-78037292D01*
X147657667Y-78084443D01*
X147155710Y-77582486D01*
X147155710Y-77582487D01*
X147055904Y-77719856D01*
X146966581Y-77895164D01*
X146905778Y-78082294D01*
X146875000Y-78276617D01*
X140425558Y-78276617D01*
X140364292Y-78215351D01*
X140363369Y-78214734D01*
X140358079Y-78208988D01*
X140343700Y-78179857D01*
X140328138Y-78151358D01*
X140328327Y-78148713D01*
X140327153Y-78146335D01*
X140330805Y-78114064D01*
X140333122Y-78081666D01*
X140334759Y-78079117D01*
X140335010Y-78076908D01*
X140340540Y-78070122D01*
X140361623Y-78037319D01*
X140464646Y-77934295D01*
X140464649Y-77934292D01*
X140477649Y-77914836D01*
X140483815Y-77905609D01*
X140537428Y-77860804D01*
X140586917Y-77850500D01*
X143574435Y-77850500D01*
X143574436Y-77850500D01*
X143622186Y-77837705D01*
X143669938Y-77824910D01*
X143755562Y-77775475D01*
X143825475Y-77705562D01*
X144744218Y-76786819D01*
X144805541Y-76753334D01*
X144831899Y-76750500D01*
X149418101Y-76750500D01*
X149485140Y-76770185D01*
X149505782Y-76786819D01*
X149963181Y-77244218D01*
X149996666Y-77305541D01*
X149999500Y-77331899D01*
X149999500Y-79668101D01*
X149979815Y-79735140D01*
X149963181Y-79755782D01*
X149549526Y-80169436D01*
X149500091Y-80255059D01*
X149500091Y-80255060D01*
X149500090Y-80255062D01*
X149474500Y-80350565D01*
X149474500Y-80350567D01*
X149474500Y-80760315D01*
X149454815Y-80827354D01*
X149406794Y-80870800D01*
X149283213Y-80933766D01*
X149191610Y-81000321D01*
X149143072Y-81035586D01*
X149143070Y-81035588D01*
X149143069Y-81035588D01*
X149020588Y-81158069D01*
X149020588Y-81158070D01*
X149020586Y-81158072D01*
X149007783Y-81175694D01*
X148918768Y-81298211D01*
X148840128Y-81452552D01*
X148786597Y-81617302D01*
X148759500Y-81788389D01*
X148759500Y-81961610D01*
X148786597Y-82132698D01*
X148830474Y-82267738D01*
X148832469Y-82337579D01*
X148800224Y-82393737D01*
X141394438Y-89799525D01*
X141324526Y-89869436D01*
X141275091Y-89955059D01*
X141275091Y-89955060D01*
X141275090Y-89955062D01*
X141249500Y-90050565D01*
X141249500Y-90050567D01*
X141249500Y-92663100D01*
X141229815Y-92730139D01*
X141213181Y-92750781D01*
X140151284Y-93812677D01*
X140089961Y-93846162D01*
X140025286Y-93842927D01*
X139882701Y-93796598D01*
X139882699Y-93796597D01*
X139882698Y-93796597D01*
X139751271Y-93775781D01*
X139711611Y-93769500D01*
X139538389Y-93769500D01*
X139498728Y-93775781D01*
X139367302Y-93796597D01*
X139202552Y-93850128D01*
X139048211Y-93928768D01*
X138992200Y-93969463D01*
X138908072Y-94030586D01*
X138908070Y-94030588D01*
X138908069Y-94030588D01*
X138785588Y-94153069D01*
X138785588Y-94153070D01*
X138785586Y-94153072D01*
X138770067Y-94174432D01*
X138683768Y-94293211D01*
X138605128Y-94447552D01*
X138551597Y-94612302D01*
X138525150Y-94779284D01*
X138524500Y-94783389D01*
X138524500Y-94956611D01*
X138551598Y-95127701D01*
X138605127Y-95292445D01*
X138683768Y-95446788D01*
X138760656Y-95552615D01*
X138784136Y-95618420D01*
X138768311Y-95686474D01*
X138718205Y-95735169D01*
X138660338Y-95749500D01*
X137825564Y-95749500D01*
X137730063Y-95775089D01*
X137730060Y-95775090D01*
X137644440Y-95824522D01*
X137644435Y-95824526D01*
X137337181Y-96131781D01*
X137275858Y-96165266D01*
X137206166Y-96160282D01*
X137150233Y-96118410D01*
X137125816Y-96052946D01*
X137125500Y-96044100D01*
X137125500Y-92243389D01*
X138524500Y-92243389D01*
X138524500Y-92416611D01*
X138551598Y-92587701D01*
X138605127Y-92752445D01*
X138683768Y-92906788D01*
X138785586Y-93046928D01*
X138908072Y-93169414D01*
X139048212Y-93271232D01*
X139202555Y-93349873D01*
X139367299Y-93403402D01*
X139538389Y-93430500D01*
X139538390Y-93430500D01*
X139711610Y-93430500D01*
X139711611Y-93430500D01*
X139882701Y-93403402D01*
X140047445Y-93349873D01*
X140201788Y-93271232D01*
X140341928Y-93169414D01*
X140464414Y-93046928D01*
X140566232Y-92906788D01*
X140644873Y-92752445D01*
X140698402Y-92587701D01*
X140725500Y-92416611D01*
X140725500Y-92243389D01*
X140698402Y-92072299D01*
X140644873Y-91907555D01*
X140566232Y-91753212D01*
X140464414Y-91613072D01*
X140341928Y-91490586D01*
X140201788Y-91388768D01*
X140047445Y-91310127D01*
X139882701Y-91256598D01*
X139882699Y-91256597D01*
X139882698Y-91256597D01*
X139751271Y-91235781D01*
X139711611Y-91229500D01*
X139538389Y-91229500D01*
X139498728Y-91235781D01*
X139367302Y-91256597D01*
X139202552Y-91310128D01*
X139048211Y-91388768D01*
X138984663Y-91434939D01*
X138908072Y-91490586D01*
X138908070Y-91490588D01*
X138908069Y-91490588D01*
X138785588Y-91613069D01*
X138785588Y-91613070D01*
X138785586Y-91613072D01*
X138763792Y-91643069D01*
X138683768Y-91753211D01*
X138605128Y-91907552D01*
X138551597Y-92072302D01*
X138540172Y-92144438D01*
X138524500Y-92243389D01*
X137125500Y-92243389D01*
X137125500Y-89703389D01*
X138524500Y-89703389D01*
X138524500Y-89876611D01*
X138551598Y-90047701D01*
X138605127Y-90212445D01*
X138683768Y-90366788D01*
X138785586Y-90506928D01*
X138908072Y-90629414D01*
X139048212Y-90731232D01*
X139202555Y-90809873D01*
X139367299Y-90863402D01*
X139538389Y-90890500D01*
X139538390Y-90890500D01*
X139711610Y-90890500D01*
X139711611Y-90890500D01*
X139882701Y-90863402D01*
X140047445Y-90809873D01*
X140201788Y-90731232D01*
X140341928Y-90629414D01*
X140464414Y-90506928D01*
X140566232Y-90366788D01*
X140644873Y-90212445D01*
X140698402Y-90047701D01*
X140725500Y-89876611D01*
X140725500Y-89703389D01*
X140698402Y-89532299D01*
X140644873Y-89367555D01*
X140566232Y-89213212D01*
X140464414Y-89073072D01*
X140341928Y-88950586D01*
X140201788Y-88848768D01*
X140047445Y-88770127D01*
X139882701Y-88716598D01*
X139882699Y-88716597D01*
X139882698Y-88716597D01*
X139751271Y-88695781D01*
X139711611Y-88689500D01*
X139538389Y-88689500D01*
X139498728Y-88695781D01*
X139367302Y-88716597D01*
X139202552Y-88770128D01*
X139048211Y-88848768D01*
X138968256Y-88906859D01*
X138908072Y-88950586D01*
X138908070Y-88950588D01*
X138908069Y-88950588D01*
X138785588Y-89073069D01*
X138785588Y-89073070D01*
X138785586Y-89073072D01*
X138763792Y-89103069D01*
X138683768Y-89213211D01*
X138605128Y-89367552D01*
X138551597Y-89532302D01*
X138546846Y-89562299D01*
X138524500Y-89703389D01*
X137125500Y-89703389D01*
X137125500Y-86375321D01*
X138524500Y-86375321D01*
X138524500Y-88124678D01*
X138539032Y-88197735D01*
X138539033Y-88197739D01*
X138539034Y-88197740D01*
X138594399Y-88280601D01*
X138677260Y-88335966D01*
X138677264Y-88335967D01*
X138750321Y-88350499D01*
X138750324Y-88350500D01*
X138750326Y-88350500D01*
X140499676Y-88350500D01*
X140499677Y-88350499D01*
X140572740Y-88335966D01*
X140655601Y-88280601D01*
X140710966Y-88197740D01*
X140725500Y-88124674D01*
X140725500Y-86375326D01*
X140725500Y-86375323D01*
X140725499Y-86375321D01*
X140710967Y-86302264D01*
X140710966Y-86302260D01*
X140655601Y-86219399D01*
X140572740Y-86164034D01*
X140572739Y-86164033D01*
X140572735Y-86164032D01*
X140499677Y-86149500D01*
X140499674Y-86149500D01*
X138750326Y-86149500D01*
X138750323Y-86149500D01*
X138677264Y-86164032D01*
X138677260Y-86164033D01*
X138594399Y-86219399D01*
X138539033Y-86302260D01*
X138539032Y-86302264D01*
X138524500Y-86375321D01*
X137125500Y-86375321D01*
X137125500Y-81574999D01*
X137961639Y-81574999D01*
X137961640Y-81575000D01*
X138502514Y-81575000D01*
X138476643Y-81600871D01*
X138450000Y-81665190D01*
X138450000Y-81734810D01*
X138476643Y-81799129D01*
X138502514Y-81825000D01*
X137961640Y-81825000D01*
X137975938Y-81896882D01*
X137975940Y-81896890D01*
X138026822Y-82019730D01*
X138100694Y-82130289D01*
X138194710Y-82224305D01*
X138305269Y-82298177D01*
X138428109Y-82349059D01*
X138428115Y-82349061D01*
X138558515Y-82375000D01*
X139000000Y-82375000D01*
X139000000Y-81875000D01*
X139250000Y-81875000D01*
X139250000Y-82375000D01*
X139691484Y-82375000D01*
X139821884Y-82349061D01*
X139821890Y-82349059D01*
X139944730Y-82298177D01*
X140055289Y-82224305D01*
X140149305Y-82130289D01*
X140223177Y-82019730D01*
X140274059Y-81896890D01*
X140274061Y-81896882D01*
X140288360Y-81825000D01*
X139747486Y-81825000D01*
X139773357Y-81799129D01*
X139800000Y-81734810D01*
X139800000Y-81665190D01*
X139773357Y-81600871D01*
X139747486Y-81575000D01*
X140288360Y-81575000D01*
X140288360Y-81574999D01*
X140274061Y-81503117D01*
X140274059Y-81503109D01*
X140223177Y-81380269D01*
X140149305Y-81269710D01*
X140055289Y-81175694D01*
X139944730Y-81101822D01*
X139821890Y-81050940D01*
X139821884Y-81050938D01*
X139691484Y-81025000D01*
X139250000Y-81025000D01*
X139250000Y-81525000D01*
X139000000Y-81525000D01*
X139000000Y-81025000D01*
X138558516Y-81025000D01*
X138428115Y-81050938D01*
X138428109Y-81050940D01*
X138305269Y-81101822D01*
X138194710Y-81175694D01*
X138100694Y-81269710D01*
X138026822Y-81380269D01*
X137975940Y-81503109D01*
X137975938Y-81503117D01*
X137961639Y-81574999D01*
X137125500Y-81574999D01*
X137125500Y-74424999D01*
X137961639Y-74424999D01*
X137961640Y-74425000D01*
X138502514Y-74425000D01*
X138476643Y-74450871D01*
X138450000Y-74515190D01*
X138450000Y-74584810D01*
X138476643Y-74649129D01*
X138502514Y-74675000D01*
X137961640Y-74675000D01*
X137975938Y-74746882D01*
X137975940Y-74746890D01*
X138026822Y-74869730D01*
X138100694Y-74980289D01*
X138194710Y-75074305D01*
X138305269Y-75148177D01*
X138428109Y-75199059D01*
X138428115Y-75199061D01*
X138558515Y-75225000D01*
X139000000Y-75225000D01*
X139000000Y-74725000D01*
X139250000Y-74725000D01*
X139250000Y-75225000D01*
X139691484Y-75225000D01*
X139821884Y-75199061D01*
X139821890Y-75199059D01*
X139944730Y-75148177D01*
X140055289Y-75074305D01*
X140149305Y-74980289D01*
X140223177Y-74869730D01*
X140274059Y-74746890D01*
X140274061Y-74746882D01*
X140288360Y-74675000D01*
X139747486Y-74675000D01*
X139773357Y-74649129D01*
X139800000Y-74584810D01*
X139800000Y-74515190D01*
X139773357Y-74450871D01*
X139747486Y-74425000D01*
X140288360Y-74425000D01*
X140288360Y-74424999D01*
X140274061Y-74353117D01*
X140274059Y-74353109D01*
X140223177Y-74230269D01*
X140149305Y-74119710D01*
X140055289Y-74025694D01*
X139944730Y-73951822D01*
X139821890Y-73900940D01*
X139821884Y-73900938D01*
X139691484Y-73875000D01*
X139250000Y-73875000D01*
X139250000Y-74375000D01*
X139000000Y-74375000D01*
X139000000Y-73875000D01*
X138558516Y-73875000D01*
X138428115Y-73900938D01*
X138428109Y-73900940D01*
X138305269Y-73951822D01*
X138194710Y-74025694D01*
X138100694Y-74119710D01*
X138026822Y-74230269D01*
X137975940Y-74353109D01*
X137975938Y-74353117D01*
X137961639Y-74424999D01*
X137125500Y-74424999D01*
X137125500Y-71776617D01*
X146875000Y-71776617D01*
X146875000Y-71973382D01*
X146905778Y-72167705D01*
X146966581Y-72354835D01*
X147055900Y-72530135D01*
X147055904Y-72530141D01*
X147155710Y-72667511D01*
X147155711Y-72667512D01*
X147657667Y-72165555D01*
X147684890Y-72212708D01*
X147787292Y-72315110D01*
X147834442Y-72342332D01*
X147332486Y-72844288D01*
X147469858Y-72944095D01*
X147469864Y-72944099D01*
X147645164Y-73033418D01*
X147832294Y-73094221D01*
X148026618Y-73125000D01*
X148223382Y-73125000D01*
X148417705Y-73094221D01*
X148604835Y-73033418D01*
X148780143Y-72944095D01*
X148917511Y-72844288D01*
X148917512Y-72844287D01*
X148415557Y-72342332D01*
X148462708Y-72315110D01*
X148565110Y-72212708D01*
X148592332Y-72165556D01*
X149094287Y-72667512D01*
X149094288Y-72667511D01*
X149194095Y-72530143D01*
X149283418Y-72354835D01*
X149344221Y-72167705D01*
X149375000Y-71973382D01*
X149375000Y-71776617D01*
X149344221Y-71582294D01*
X149283418Y-71395164D01*
X149194099Y-71219864D01*
X149194095Y-71219858D01*
X149094288Y-71082487D01*
X149094288Y-71082486D01*
X148592332Y-71584442D01*
X148565110Y-71537292D01*
X148462708Y-71434890D01*
X148415556Y-71407667D01*
X148917512Y-70905711D01*
X148917511Y-70905710D01*
X148780141Y-70805904D01*
X148780135Y-70805900D01*
X148604835Y-70716581D01*
X148417705Y-70655778D01*
X148223382Y-70625000D01*
X148026618Y-70625000D01*
X147832294Y-70655778D01*
X147645164Y-70716581D01*
X147469856Y-70805904D01*
X147332487Y-70905710D01*
X147332486Y-70905710D01*
X147834443Y-71407667D01*
X147787292Y-71434890D01*
X147684890Y-71537292D01*
X147657667Y-71584443D01*
X147155710Y-71082486D01*
X147155710Y-71082487D01*
X147055904Y-71219856D01*
X146966581Y-71395164D01*
X146905778Y-71582294D01*
X146875000Y-71776617D01*
X137125500Y-71776617D01*
X137125500Y-68030049D01*
X141091000Y-68030049D01*
X141091000Y-68219950D01*
X141128044Y-68406180D01*
X141128046Y-68406188D01*
X141200713Y-68581621D01*
X141200718Y-68581630D01*
X141289188Y-68714033D01*
X141653552Y-68349670D01*
X141686909Y-68407446D01*
X141772554Y-68493091D01*
X141830328Y-68526447D01*
X141465964Y-68890811D01*
X141598377Y-68979286D01*
X141773811Y-69051953D01*
X141773819Y-69051955D01*
X141960049Y-69088999D01*
X141960052Y-69089000D01*
X142149948Y-69089000D01*
X142149950Y-69088999D01*
X142336180Y-69051955D01*
X142336188Y-69051953D01*
X142511622Y-68979286D01*
X142644034Y-68890811D01*
X142644034Y-68890810D01*
X142279671Y-68526447D01*
X142337446Y-68493091D01*
X142423091Y-68407446D01*
X142456447Y-68349671D01*
X142820810Y-68714034D01*
X142820811Y-68714034D01*
X142909286Y-68581622D01*
X142981953Y-68406188D01*
X142981955Y-68406180D01*
X143018999Y-68219950D01*
X143019000Y-68219948D01*
X143019000Y-68030050D01*
X143018990Y-68030000D01*
X143590500Y-68030000D01*
X143590500Y-68219999D01*
X143627563Y-68406326D01*
X143627565Y-68406334D01*
X143700269Y-68581859D01*
X143700274Y-68581868D01*
X143805823Y-68739832D01*
X143805826Y-68739836D01*
X143940163Y-68874173D01*
X143940167Y-68874176D01*
X144098131Y-68979725D01*
X144098137Y-68979728D01*
X144098138Y-68979729D01*
X144273666Y-69052435D01*
X144457486Y-69088999D01*
X144460000Y-69089499D01*
X144460004Y-69089500D01*
X144460005Y-69089500D01*
X144649996Y-69089500D01*
X144649997Y-69089499D01*
X144836334Y-69052435D01*
X145011862Y-68979729D01*
X145169833Y-68874176D01*
X145304176Y-68739833D01*
X145409729Y-68581862D01*
X145409825Y-68581630D01*
X145440439Y-68507722D01*
X145484280Y-68453318D01*
X145550574Y-68431253D01*
X145618273Y-68448532D01*
X145665884Y-68499669D01*
X145669561Y-68507722D01*
X145700267Y-68581855D01*
X145700274Y-68581868D01*
X145805823Y-68739832D01*
X145805826Y-68739836D01*
X145940163Y-68874173D01*
X145940167Y-68874176D01*
X146098131Y-68979725D01*
X146098137Y-68979728D01*
X146098138Y-68979729D01*
X146273666Y-69052435D01*
X146457486Y-69088999D01*
X146460000Y-69089499D01*
X146460004Y-69089500D01*
X146460005Y-69089500D01*
X146649996Y-69089500D01*
X146649997Y-69089499D01*
X146836334Y-69052435D01*
X147011862Y-68979729D01*
X147169833Y-68874176D01*
X147304176Y-68739833D01*
X147409729Y-68581862D01*
X147482435Y-68406334D01*
X147519500Y-68219995D01*
X147519500Y-68030005D01*
X147482435Y-67843666D01*
X147409828Y-67668377D01*
X147409730Y-67668140D01*
X147409725Y-67668131D01*
X147304176Y-67510167D01*
X147304173Y-67510163D01*
X147180331Y-67386321D01*
X148090500Y-67386321D01*
X148090500Y-68863678D01*
X148105032Y-68936735D01*
X148105033Y-68936739D01*
X148105034Y-68936740D01*
X148160399Y-69019601D01*
X148243260Y-69074966D01*
X148243264Y-69074967D01*
X148316321Y-69089499D01*
X148316324Y-69089500D01*
X148316326Y-69089500D01*
X149793676Y-69089500D01*
X149793677Y-69089499D01*
X149866740Y-69074966D01*
X149949601Y-69019601D01*
X150004966Y-68936740D01*
X150019500Y-68863674D01*
X150019500Y-67386326D01*
X150019500Y-67386323D01*
X150019499Y-67386321D01*
X150004967Y-67313264D01*
X150004966Y-67313260D01*
X149949601Y-67230399D01*
X149866740Y-67175034D01*
X149866739Y-67175033D01*
X149866735Y-67175032D01*
X149793677Y-67160500D01*
X149793674Y-67160500D01*
X148316326Y-67160500D01*
X148316323Y-67160500D01*
X148243264Y-67175032D01*
X148243260Y-67175033D01*
X148160399Y-67230399D01*
X148105033Y-67313260D01*
X148105032Y-67313264D01*
X148090500Y-67386321D01*
X147180331Y-67386321D01*
X147169836Y-67375826D01*
X147169832Y-67375823D01*
X147011868Y-67270274D01*
X147011859Y-67270269D01*
X146836334Y-67197565D01*
X146836326Y-67197563D01*
X146649999Y-67160500D01*
X146649995Y-67160500D01*
X146460005Y-67160500D01*
X146460000Y-67160500D01*
X146273673Y-67197563D01*
X146273665Y-67197565D01*
X146098140Y-67270269D01*
X146098131Y-67270274D01*
X145940167Y-67375823D01*
X145940163Y-67375826D01*
X145805826Y-67510163D01*
X145805823Y-67510167D01*
X145700274Y-67668131D01*
X145700269Y-67668140D01*
X145669561Y-67742278D01*
X145625720Y-67796681D01*
X145559426Y-67818746D01*
X145491727Y-67801467D01*
X145444116Y-67750330D01*
X145440439Y-67742278D01*
X145409730Y-67668140D01*
X145409725Y-67668131D01*
X145304176Y-67510167D01*
X145304173Y-67510163D01*
X145169836Y-67375826D01*
X145169832Y-67375823D01*
X145011868Y-67270274D01*
X145011859Y-67270269D01*
X144836334Y-67197565D01*
X144836326Y-67197563D01*
X144649999Y-67160500D01*
X144649995Y-67160500D01*
X144460005Y-67160500D01*
X144460000Y-67160500D01*
X144273673Y-67197563D01*
X144273665Y-67197565D01*
X144098140Y-67270269D01*
X144098131Y-67270274D01*
X143940167Y-67375823D01*
X143940163Y-67375826D01*
X143805826Y-67510163D01*
X143805823Y-67510167D01*
X143700274Y-67668131D01*
X143700269Y-67668140D01*
X143627565Y-67843665D01*
X143627563Y-67843673D01*
X143590500Y-68030000D01*
X143018990Y-68030000D01*
X142981955Y-67843819D01*
X142981953Y-67843811D01*
X142909286Y-67668377D01*
X142820811Y-67535964D01*
X142456447Y-67900328D01*
X142423091Y-67842554D01*
X142337446Y-67756909D01*
X142279670Y-67723552D01*
X142644033Y-67359188D01*
X142644033Y-67359187D01*
X142511630Y-67270718D01*
X142511621Y-67270713D01*
X142336188Y-67198046D01*
X142336180Y-67198044D01*
X142149949Y-67161000D01*
X141960051Y-67161000D01*
X141773819Y-67198044D01*
X141773811Y-67198046D01*
X141598373Y-67270715D01*
X141598372Y-67270715D01*
X141465965Y-67359186D01*
X141465965Y-67359188D01*
X141830329Y-67723552D01*
X141772554Y-67756909D01*
X141686909Y-67842554D01*
X141653552Y-67900329D01*
X141289188Y-67535965D01*
X141289186Y-67535965D01*
X141200715Y-67668372D01*
X141200715Y-67668373D01*
X141128046Y-67843811D01*
X141128044Y-67843819D01*
X141091000Y-68030049D01*
X137125500Y-68030049D01*
X137125500Y-66213025D01*
X137145185Y-66145986D01*
X137197989Y-66100231D01*
X137267147Y-66090287D01*
X137330703Y-66119312D01*
X137356888Y-66151026D01*
X137382652Y-66195652D01*
X137382660Y-66195664D01*
X137536110Y-66395642D01*
X137536117Y-66395650D01*
X137536844Y-66396377D01*
X137536845Y-66396377D01*
X138076563Y-65856659D01*
X138096388Y-65883946D01*
X138226054Y-66013612D01*
X138253339Y-66033436D01*
X137713622Y-66573154D01*
X137714349Y-66573882D01*
X137714357Y-66573889D01*
X137914335Y-66727339D01*
X137914352Y-66727350D01*
X138132651Y-66853385D01*
X138132660Y-66853389D01*
X138365543Y-66949853D01*
X138609037Y-67015097D01*
X138858949Y-67047998D01*
X138858967Y-67048000D01*
X139111033Y-67048000D01*
X139111050Y-67047998D01*
X139360962Y-67015097D01*
X139604456Y-66949853D01*
X139837339Y-66853389D01*
X139837348Y-66853385D01*
X140055647Y-66727350D01*
X140055654Y-66727345D01*
X140255642Y-66573889D01*
X140256376Y-66573154D01*
X140256376Y-66573152D01*
X139716660Y-66033436D01*
X139743946Y-66013612D01*
X139873612Y-65883946D01*
X139893436Y-65856660D01*
X140433152Y-66396376D01*
X140433154Y-66396377D01*
X140433889Y-66395642D01*
X140587345Y-66195654D01*
X140587350Y-66195647D01*
X140713385Y-65977348D01*
X140713389Y-65977339D01*
X140809853Y-65744456D01*
X140875097Y-65500962D01*
X140907998Y-65251050D01*
X140908000Y-65251033D01*
X140908000Y-64998966D01*
X140907998Y-64998949D01*
X140875097Y-64749037D01*
X140809853Y-64505543D01*
X140713389Y-64272660D01*
X140713385Y-64272651D01*
X140587350Y-64054352D01*
X140587339Y-64054335D01*
X140433889Y-63854357D01*
X140433882Y-63854349D01*
X140433155Y-63853622D01*
X140433154Y-63853622D01*
X139893436Y-64393339D01*
X139873612Y-64366054D01*
X139743946Y-64236388D01*
X139716659Y-64216563D01*
X140256377Y-63676845D01*
X140256377Y-63676844D01*
X140255650Y-63676117D01*
X140255642Y-63676110D01*
X140055664Y-63522660D01*
X140055647Y-63522649D01*
X139837348Y-63396614D01*
X139837339Y-63396610D01*
X139604456Y-63300146D01*
X139360962Y-63234902D01*
X139111050Y-63202001D01*
X139111033Y-63202000D01*
X138858967Y-63202000D01*
X138858949Y-63202001D01*
X138609037Y-63234902D01*
X138365543Y-63300146D01*
X138132660Y-63396610D01*
X138132651Y-63396614D01*
X137914352Y-63522649D01*
X137914335Y-63522660D01*
X137714361Y-63676107D01*
X137713622Y-63676845D01*
X138253340Y-64216563D01*
X138226054Y-64236388D01*
X138096388Y-64366054D01*
X138076563Y-64393340D01*
X137536845Y-63853622D01*
X137536107Y-63854361D01*
X137382660Y-64054335D01*
X137382649Y-64054352D01*
X137356887Y-64098974D01*
X137306320Y-64147190D01*
X137237713Y-64160413D01*
X137172848Y-64134445D01*
X137132320Y-64077530D01*
X137125500Y-64036974D01*
X137125500Y-61999500D01*
X137145185Y-61932461D01*
X137197989Y-61886706D01*
X137249500Y-61875500D01*
X154000500Y-61875500D01*
X154067539Y-61895185D01*
G37*
%TD.AperFunction*%
%TD*%
M02*
