M48
; DRILL file {KiCad 9.0.6-1.fc43} date 2025-12-11T00:59:35+1030
; FORMAT={-:-/ absolute / metric / decimal}
; #@! TF.CreationDate,2025-12-11T00:59:35+10:30
; #@! TF.GenerationSoftware,Kicad,Pcbnew,9.0.6-1.fc43
; #@! TF.FileFunction,Plated,1,2,PTH
FMAT,2
METRIC
; #@! TA.AperFunction,Plated,PTH,ComponentDrill
T1C0.350
; #@! TA.AperFunction,Plated,PTH,ComponentDrill
T2C0.440
; #@! TA.AperFunction,Plated,PTH,ViaDrill
T3C0.500
; #@! TA.AperFunction,Plated,PTH,ComponentDrill
T4C0.920
; #@! TA.AperFunction,Plated,PTH,ComponentDrill
T5C1.000
; #@! TA.AperFunction,Plated,PTH,ComponentDrill
T6C1.100
; #@! TA.AperFunction,Plated,PTH,ComponentDrill
T7C2.330
%
G90
G05
T2
X138.905Y-76.825
X138.905Y-78.125
X138.905Y-79.425
X139.905Y-77.475
X139.905Y-78.775
T3
X137.625Y-105.125
X137.625Y-109.375
X137.625Y-112.375
X137.625Y-116.375
X137.625Y-118.875
X137.875Y-93.625
X138.625Y-70.375
X138.625Y-72.875
X139.625Y-85.375
X140.625Y-109.375
X140.625Y-112.375
X141.625Y-70.375
X141.625Y-72.875
X141.625Y-78.875
X141.625Y-88.375
X141.625Y-116.375
X141.875Y-112.375
X142.625Y-65.375
X142.625Y-76.375
X142.625Y-85.375
X142.625Y-118.875
X143.125Y-92.375
X143.125Y-94.375
X143.125Y-97.375
X143.125Y-100.375
X143.125Y-103.375
X143.125Y-106.375
X143.125Y-109.375
X144.125Y-70.375
X144.625Y-78.875
X144.625Y-83.375
X144.625Y-118.875
X145.625Y-65.375
X145.625Y-73.375
X145.625Y-88.875
X145.625Y-91.375
X145.625Y-94.375
X145.625Y-97.375
X145.625Y-100.375
X145.625Y-103.375
X145.625Y-106.375
X145.625Y-109.375
X145.625Y-112.375
X147.625Y-118.875
X148.125Y-75.375
X148.125Y-86.375
X148.625Y-65.375
X148.875Y-116.375
X149.875Y-88.875
X149.875Y-91.125
X149.875Y-93.625
X149.875Y-96.125
X150.125Y-84.375
X150.125Y-98.875
X150.125Y-101.375
X150.625Y-112.375
X151.125Y-75.375
X151.125Y-107.375
X151.125Y-109.375
X151.625Y-116.375
X151.625Y-118.875
X152.625Y-69.375
X152.625Y-112.375
X153.625Y-84.375
T4
X142.055Y-68.125
X144.555Y-68.125
X146.555Y-68.125
X149.055Y-68.125
T5
X139.625Y-87.25
X139.625Y-89.79
X139.625Y-92.33
X139.625Y-94.87
X139.625Y-97.41
X139.625Y-99.95
X139.625Y-102.49
X139.625Y-105.03
X143.61Y-81.875
X146.15Y-81.875
X149.86Y-81.875
X151.675Y-87.28
X151.675Y-89.82
X151.675Y-92.36
X151.675Y-94.9
X151.675Y-97.44
X151.675Y-99.98
X151.675Y-102.52
X151.675Y-105.06
X152.4Y-81.875
T6
X148.125Y-71.875
X148.125Y-78.375
X152.625Y-71.875
X152.625Y-78.375
T7
X138.985Y-65.125
X152.125Y-65.125
T1
G00X138.625Y-74.55
M15
G01X139.625Y-74.55
M16
G05
G00X138.625Y-81.7
M15
G01X139.625Y-81.7
M16
G05
M30
