%TF.GenerationSoftware,KiCad,Pcbnew,9.0.6-1.fc43*%
%TF.CreationDate,2025-12-11T00:59:32+10:30*%
%TF.ProjectId,DreameBreakout,44726561-6d65-4427-9265-616b6f75742e,1.1*%
%TF.SameCoordinates,Original*%
%TF.FileFunction,Legend,Bot*%
%TF.FilePolarity,Positive*%
%FSLAX46Y46*%
G04 Gerber Fmt 4.6, Leading zero omitted, Abs format (unit mm)*
G04 Created by KiCad (PCBNEW 9.0.6-1.fc43) date 2025-12-11 00:59:32*
%MOMM*%
%LPD*%
G01*
G04 APERTURE LIST*
%ADD10C,0.150000*%
%ADD11C,0.200000*%
G04 APERTURE END LIST*
D10*
X137625000Y-113375000D02*
X153625000Y-113375000D01*
X153625000Y-117875000D01*
X137625000Y-117875000D01*
X137625000Y-113375000D01*
G36*
X137625000Y-113375000D02*
G01*
X153625000Y-113375000D01*
X153625000Y-117875000D01*
X137625000Y-117875000D01*
X137625000Y-113375000D01*
G37*
X150696428Y-108024847D02*
X150696428Y-107024847D01*
X150696428Y-107024847D02*
X150458333Y-107024847D01*
X150458333Y-107024847D02*
X150315476Y-107072466D01*
X150315476Y-107072466D02*
X150220238Y-107167704D01*
X150220238Y-107167704D02*
X150172619Y-107262942D01*
X150172619Y-107262942D02*
X150125000Y-107453418D01*
X150125000Y-107453418D02*
X150125000Y-107596275D01*
X150125000Y-107596275D02*
X150172619Y-107786751D01*
X150172619Y-107786751D02*
X150220238Y-107881989D01*
X150220238Y-107881989D02*
X150315476Y-107977228D01*
X150315476Y-107977228D02*
X150458333Y-108024847D01*
X150458333Y-108024847D02*
X150696428Y-108024847D01*
X149696428Y-108024847D02*
X149696428Y-107358180D01*
X149696428Y-107548656D02*
X149648809Y-107453418D01*
X149648809Y-107453418D02*
X149601190Y-107405799D01*
X149601190Y-107405799D02*
X149505952Y-107358180D01*
X149505952Y-107358180D02*
X149410714Y-107358180D01*
X148696428Y-107977228D02*
X148791666Y-108024847D01*
X148791666Y-108024847D02*
X148982142Y-108024847D01*
X148982142Y-108024847D02*
X149077380Y-107977228D01*
X149077380Y-107977228D02*
X149124999Y-107881989D01*
X149124999Y-107881989D02*
X149124999Y-107501037D01*
X149124999Y-107501037D02*
X149077380Y-107405799D01*
X149077380Y-107405799D02*
X148982142Y-107358180D01*
X148982142Y-107358180D02*
X148791666Y-107358180D01*
X148791666Y-107358180D02*
X148696428Y-107405799D01*
X148696428Y-107405799D02*
X148648809Y-107501037D01*
X148648809Y-107501037D02*
X148648809Y-107596275D01*
X148648809Y-107596275D02*
X149124999Y-107691513D01*
X147791666Y-108024847D02*
X147791666Y-107501037D01*
X147791666Y-107501037D02*
X147839285Y-107405799D01*
X147839285Y-107405799D02*
X147934523Y-107358180D01*
X147934523Y-107358180D02*
X148124999Y-107358180D01*
X148124999Y-107358180D02*
X148220237Y-107405799D01*
X147791666Y-107977228D02*
X147886904Y-108024847D01*
X147886904Y-108024847D02*
X148124999Y-108024847D01*
X148124999Y-108024847D02*
X148220237Y-107977228D01*
X148220237Y-107977228D02*
X148267856Y-107881989D01*
X148267856Y-107881989D02*
X148267856Y-107786751D01*
X148267856Y-107786751D02*
X148220237Y-107691513D01*
X148220237Y-107691513D02*
X148124999Y-107643894D01*
X148124999Y-107643894D02*
X147886904Y-107643894D01*
X147886904Y-107643894D02*
X147791666Y-107596275D01*
X147315475Y-108024847D02*
X147315475Y-107358180D01*
X147315475Y-107453418D02*
X147267856Y-107405799D01*
X147267856Y-107405799D02*
X147172618Y-107358180D01*
X147172618Y-107358180D02*
X147029761Y-107358180D01*
X147029761Y-107358180D02*
X146934523Y-107405799D01*
X146934523Y-107405799D02*
X146886904Y-107501037D01*
X146886904Y-107501037D02*
X146886904Y-108024847D01*
X146886904Y-107501037D02*
X146839285Y-107405799D01*
X146839285Y-107405799D02*
X146744047Y-107358180D01*
X146744047Y-107358180D02*
X146601190Y-107358180D01*
X146601190Y-107358180D02*
X146505951Y-107405799D01*
X146505951Y-107405799D02*
X146458332Y-107501037D01*
X146458332Y-107501037D02*
X146458332Y-108024847D01*
X145601190Y-107977228D02*
X145696428Y-108024847D01*
X145696428Y-108024847D02*
X145886904Y-108024847D01*
X145886904Y-108024847D02*
X145982142Y-107977228D01*
X145982142Y-107977228D02*
X146029761Y-107881989D01*
X146029761Y-107881989D02*
X146029761Y-107501037D01*
X146029761Y-107501037D02*
X145982142Y-107405799D01*
X145982142Y-107405799D02*
X145886904Y-107358180D01*
X145886904Y-107358180D02*
X145696428Y-107358180D01*
X145696428Y-107358180D02*
X145601190Y-107405799D01*
X145601190Y-107405799D02*
X145553571Y-107501037D01*
X145553571Y-107501037D02*
X145553571Y-107596275D01*
X145553571Y-107596275D02*
X146029761Y-107691513D01*
X143791666Y-108024847D02*
X144124999Y-107548656D01*
X144363094Y-108024847D02*
X144363094Y-107024847D01*
X144363094Y-107024847D02*
X143982142Y-107024847D01*
X143982142Y-107024847D02*
X143886904Y-107072466D01*
X143886904Y-107072466D02*
X143839285Y-107120085D01*
X143839285Y-107120085D02*
X143791666Y-107215323D01*
X143791666Y-107215323D02*
X143791666Y-107358180D01*
X143791666Y-107358180D02*
X143839285Y-107453418D01*
X143839285Y-107453418D02*
X143886904Y-107501037D01*
X143886904Y-107501037D02*
X143982142Y-107548656D01*
X143982142Y-107548656D02*
X144363094Y-107548656D01*
X143220237Y-108024847D02*
X143315475Y-107977228D01*
X143315475Y-107977228D02*
X143363094Y-107929608D01*
X143363094Y-107929608D02*
X143410713Y-107834370D01*
X143410713Y-107834370D02*
X143410713Y-107548656D01*
X143410713Y-107548656D02*
X143363094Y-107453418D01*
X143363094Y-107453418D02*
X143315475Y-107405799D01*
X143315475Y-107405799D02*
X143220237Y-107358180D01*
X143220237Y-107358180D02*
X143077380Y-107358180D01*
X143077380Y-107358180D02*
X142982142Y-107405799D01*
X142982142Y-107405799D02*
X142934523Y-107453418D01*
X142934523Y-107453418D02*
X142886904Y-107548656D01*
X142886904Y-107548656D02*
X142886904Y-107834370D01*
X142886904Y-107834370D02*
X142934523Y-107929608D01*
X142934523Y-107929608D02*
X142982142Y-107977228D01*
X142982142Y-107977228D02*
X143077380Y-108024847D01*
X143077380Y-108024847D02*
X143220237Y-108024847D01*
X142458332Y-108024847D02*
X142458332Y-107024847D01*
X142458332Y-107405799D02*
X142363094Y-107358180D01*
X142363094Y-107358180D02*
X142172618Y-107358180D01*
X142172618Y-107358180D02*
X142077380Y-107405799D01*
X142077380Y-107405799D02*
X142029761Y-107453418D01*
X142029761Y-107453418D02*
X141982142Y-107548656D01*
X141982142Y-107548656D02*
X141982142Y-107834370D01*
X141982142Y-107834370D02*
X142029761Y-107929608D01*
X142029761Y-107929608D02*
X142077380Y-107977228D01*
X142077380Y-107977228D02*
X142172618Y-108024847D01*
X142172618Y-108024847D02*
X142363094Y-108024847D01*
X142363094Y-108024847D02*
X142458332Y-107977228D01*
X141410713Y-108024847D02*
X141505951Y-107977228D01*
X141505951Y-107977228D02*
X141553570Y-107929608D01*
X141553570Y-107929608D02*
X141601189Y-107834370D01*
X141601189Y-107834370D02*
X141601189Y-107548656D01*
X141601189Y-107548656D02*
X141553570Y-107453418D01*
X141553570Y-107453418D02*
X141505951Y-107405799D01*
X141505951Y-107405799D02*
X141410713Y-107358180D01*
X141410713Y-107358180D02*
X141267856Y-107358180D01*
X141267856Y-107358180D02*
X141172618Y-107405799D01*
X141172618Y-107405799D02*
X141124999Y-107453418D01*
X141124999Y-107453418D02*
X141077380Y-107548656D01*
X141077380Y-107548656D02*
X141077380Y-107834370D01*
X141077380Y-107834370D02*
X141124999Y-107929608D01*
X141124999Y-107929608D02*
X141172618Y-107977228D01*
X141172618Y-107977228D02*
X141267856Y-108024847D01*
X141267856Y-108024847D02*
X141410713Y-108024847D01*
X140791665Y-107358180D02*
X140410713Y-107358180D01*
X140648808Y-107024847D02*
X140648808Y-107881989D01*
X140648808Y-107881989D02*
X140601189Y-107977228D01*
X140601189Y-107977228D02*
X140505951Y-108024847D01*
X140505951Y-108024847D02*
X140410713Y-108024847D01*
X151339286Y-109634791D02*
X151339286Y-108634791D01*
X151339286Y-108634791D02*
X151101191Y-108634791D01*
X151101191Y-108634791D02*
X150958334Y-108682410D01*
X150958334Y-108682410D02*
X150863096Y-108777648D01*
X150863096Y-108777648D02*
X150815477Y-108872886D01*
X150815477Y-108872886D02*
X150767858Y-109063362D01*
X150767858Y-109063362D02*
X150767858Y-109206219D01*
X150767858Y-109206219D02*
X150815477Y-109396695D01*
X150815477Y-109396695D02*
X150863096Y-109491933D01*
X150863096Y-109491933D02*
X150958334Y-109587172D01*
X150958334Y-109587172D02*
X151101191Y-109634791D01*
X151101191Y-109634791D02*
X151339286Y-109634791D01*
X149958334Y-109587172D02*
X150053572Y-109634791D01*
X150053572Y-109634791D02*
X150244048Y-109634791D01*
X150244048Y-109634791D02*
X150339286Y-109587172D01*
X150339286Y-109587172D02*
X150386905Y-109491933D01*
X150386905Y-109491933D02*
X150386905Y-109110981D01*
X150386905Y-109110981D02*
X150339286Y-109015743D01*
X150339286Y-109015743D02*
X150244048Y-108968124D01*
X150244048Y-108968124D02*
X150053572Y-108968124D01*
X150053572Y-108968124D02*
X149958334Y-109015743D01*
X149958334Y-109015743D02*
X149910715Y-109110981D01*
X149910715Y-109110981D02*
X149910715Y-109206219D01*
X149910715Y-109206219D02*
X150386905Y-109301457D01*
X149482143Y-109634791D02*
X149482143Y-108634791D01*
X149482143Y-109015743D02*
X149386905Y-108968124D01*
X149386905Y-108968124D02*
X149196429Y-108968124D01*
X149196429Y-108968124D02*
X149101191Y-109015743D01*
X149101191Y-109015743D02*
X149053572Y-109063362D01*
X149053572Y-109063362D02*
X149005953Y-109158600D01*
X149005953Y-109158600D02*
X149005953Y-109444314D01*
X149005953Y-109444314D02*
X149053572Y-109539552D01*
X149053572Y-109539552D02*
X149101191Y-109587172D01*
X149101191Y-109587172D02*
X149196429Y-109634791D01*
X149196429Y-109634791D02*
X149386905Y-109634791D01*
X149386905Y-109634791D02*
X149482143Y-109587172D01*
X148148810Y-108968124D02*
X148148810Y-109634791D01*
X148577381Y-108968124D02*
X148577381Y-109491933D01*
X148577381Y-109491933D02*
X148529762Y-109587172D01*
X148529762Y-109587172D02*
X148434524Y-109634791D01*
X148434524Y-109634791D02*
X148291667Y-109634791D01*
X148291667Y-109634791D02*
X148196429Y-109587172D01*
X148196429Y-109587172D02*
X148148810Y-109539552D01*
X147244048Y-108968124D02*
X147244048Y-109777648D01*
X147244048Y-109777648D02*
X147291667Y-109872886D01*
X147291667Y-109872886D02*
X147339286Y-109920505D01*
X147339286Y-109920505D02*
X147434524Y-109968124D01*
X147434524Y-109968124D02*
X147577381Y-109968124D01*
X147577381Y-109968124D02*
X147672619Y-109920505D01*
X147244048Y-109587172D02*
X147339286Y-109634791D01*
X147339286Y-109634791D02*
X147529762Y-109634791D01*
X147529762Y-109634791D02*
X147625000Y-109587172D01*
X147625000Y-109587172D02*
X147672619Y-109539552D01*
X147672619Y-109539552D02*
X147720238Y-109444314D01*
X147720238Y-109444314D02*
X147720238Y-109158600D01*
X147720238Y-109158600D02*
X147672619Y-109063362D01*
X147672619Y-109063362D02*
X147625000Y-109015743D01*
X147625000Y-109015743D02*
X147529762Y-108968124D01*
X147529762Y-108968124D02*
X147339286Y-108968124D01*
X147339286Y-108968124D02*
X147244048Y-109015743D01*
X145672619Y-109110981D02*
X145529762Y-109158600D01*
X145529762Y-109158600D02*
X145482143Y-109206219D01*
X145482143Y-109206219D02*
X145434524Y-109301457D01*
X145434524Y-109301457D02*
X145434524Y-109444314D01*
X145434524Y-109444314D02*
X145482143Y-109539552D01*
X145482143Y-109539552D02*
X145529762Y-109587172D01*
X145529762Y-109587172D02*
X145625000Y-109634791D01*
X145625000Y-109634791D02*
X146005952Y-109634791D01*
X146005952Y-109634791D02*
X146005952Y-108634791D01*
X146005952Y-108634791D02*
X145672619Y-108634791D01*
X145672619Y-108634791D02*
X145577381Y-108682410D01*
X145577381Y-108682410D02*
X145529762Y-108730029D01*
X145529762Y-108730029D02*
X145482143Y-108825267D01*
X145482143Y-108825267D02*
X145482143Y-108920505D01*
X145482143Y-108920505D02*
X145529762Y-109015743D01*
X145529762Y-109015743D02*
X145577381Y-109063362D01*
X145577381Y-109063362D02*
X145672619Y-109110981D01*
X145672619Y-109110981D02*
X146005952Y-109110981D01*
X145005952Y-109634791D02*
X145005952Y-108968124D01*
X145005952Y-109158600D02*
X144958333Y-109063362D01*
X144958333Y-109063362D02*
X144910714Y-109015743D01*
X144910714Y-109015743D02*
X144815476Y-108968124D01*
X144815476Y-108968124D02*
X144720238Y-108968124D01*
X144005952Y-109587172D02*
X144101190Y-109634791D01*
X144101190Y-109634791D02*
X144291666Y-109634791D01*
X144291666Y-109634791D02*
X144386904Y-109587172D01*
X144386904Y-109587172D02*
X144434523Y-109491933D01*
X144434523Y-109491933D02*
X144434523Y-109110981D01*
X144434523Y-109110981D02*
X144386904Y-109015743D01*
X144386904Y-109015743D02*
X144291666Y-108968124D01*
X144291666Y-108968124D02*
X144101190Y-108968124D01*
X144101190Y-108968124D02*
X144005952Y-109015743D01*
X144005952Y-109015743D02*
X143958333Y-109110981D01*
X143958333Y-109110981D02*
X143958333Y-109206219D01*
X143958333Y-109206219D02*
X144434523Y-109301457D01*
X143101190Y-109634791D02*
X143101190Y-109110981D01*
X143101190Y-109110981D02*
X143148809Y-109015743D01*
X143148809Y-109015743D02*
X143244047Y-108968124D01*
X143244047Y-108968124D02*
X143434523Y-108968124D01*
X143434523Y-108968124D02*
X143529761Y-109015743D01*
X143101190Y-109587172D02*
X143196428Y-109634791D01*
X143196428Y-109634791D02*
X143434523Y-109634791D01*
X143434523Y-109634791D02*
X143529761Y-109587172D01*
X143529761Y-109587172D02*
X143577380Y-109491933D01*
X143577380Y-109491933D02*
X143577380Y-109396695D01*
X143577380Y-109396695D02*
X143529761Y-109301457D01*
X143529761Y-109301457D02*
X143434523Y-109253838D01*
X143434523Y-109253838D02*
X143196428Y-109253838D01*
X143196428Y-109253838D02*
X143101190Y-109206219D01*
X142624999Y-109634791D02*
X142624999Y-108634791D01*
X142529761Y-109253838D02*
X142244047Y-109634791D01*
X142244047Y-108968124D02*
X142624999Y-109349076D01*
X141672618Y-109634791D02*
X141767856Y-109587172D01*
X141767856Y-109587172D02*
X141815475Y-109539552D01*
X141815475Y-109539552D02*
X141863094Y-109444314D01*
X141863094Y-109444314D02*
X141863094Y-109158600D01*
X141863094Y-109158600D02*
X141815475Y-109063362D01*
X141815475Y-109063362D02*
X141767856Y-109015743D01*
X141767856Y-109015743D02*
X141672618Y-108968124D01*
X141672618Y-108968124D02*
X141529761Y-108968124D01*
X141529761Y-108968124D02*
X141434523Y-109015743D01*
X141434523Y-109015743D02*
X141386904Y-109063362D01*
X141386904Y-109063362D02*
X141339285Y-109158600D01*
X141339285Y-109158600D02*
X141339285Y-109444314D01*
X141339285Y-109444314D02*
X141386904Y-109539552D01*
X141386904Y-109539552D02*
X141434523Y-109587172D01*
X141434523Y-109587172D02*
X141529761Y-109634791D01*
X141529761Y-109634791D02*
X141672618Y-109634791D01*
X140482142Y-108968124D02*
X140482142Y-109634791D01*
X140910713Y-108968124D02*
X140910713Y-109491933D01*
X140910713Y-109491933D02*
X140863094Y-109587172D01*
X140863094Y-109587172D02*
X140767856Y-109634791D01*
X140767856Y-109634791D02*
X140624999Y-109634791D01*
X140624999Y-109634791D02*
X140529761Y-109587172D01*
X140529761Y-109587172D02*
X140482142Y-109539552D01*
X140148808Y-108968124D02*
X139767856Y-108968124D01*
X140005951Y-108634791D02*
X140005951Y-109491933D01*
X140005951Y-109491933D02*
X139958332Y-109587172D01*
X139958332Y-109587172D02*
X139863094Y-109634791D01*
X139863094Y-109634791D02*
X139767856Y-109634791D01*
D11*
X149839285Y-65291504D02*
X149363095Y-65291504D01*
X149934523Y-65577219D02*
X149601190Y-64577219D01*
X149601190Y-64577219D02*
X149267857Y-65577219D01*
X148791666Y-65577219D02*
X148886904Y-65529600D01*
X148886904Y-65529600D02*
X148934523Y-65434361D01*
X148934523Y-65434361D02*
X148934523Y-64577219D01*
X148029761Y-65529600D02*
X148124999Y-65577219D01*
X148124999Y-65577219D02*
X148315475Y-65577219D01*
X148315475Y-65577219D02*
X148410713Y-65529600D01*
X148410713Y-65529600D02*
X148458332Y-65434361D01*
X148458332Y-65434361D02*
X148458332Y-65053409D01*
X148458332Y-65053409D02*
X148410713Y-64958171D01*
X148410713Y-64958171D02*
X148315475Y-64910552D01*
X148315475Y-64910552D02*
X148124999Y-64910552D01*
X148124999Y-64910552D02*
X148029761Y-64958171D01*
X148029761Y-64958171D02*
X147982142Y-65053409D01*
X147982142Y-65053409D02*
X147982142Y-65148647D01*
X147982142Y-65148647D02*
X148458332Y-65243885D01*
X147648808Y-65577219D02*
X147124999Y-64910552D01*
X147648808Y-64910552D02*
X147124999Y-65577219D01*
X145982141Y-65577219D02*
X145982141Y-64577219D01*
X145410713Y-65577219D02*
X145839284Y-65005790D01*
X145410713Y-64577219D02*
X145982141Y-65148647D01*
X144982141Y-64910552D02*
X144982141Y-65577219D01*
X144982141Y-65005790D02*
X144934522Y-64958171D01*
X144934522Y-64958171D02*
X144839284Y-64910552D01*
X144839284Y-64910552D02*
X144696427Y-64910552D01*
X144696427Y-64910552D02*
X144601189Y-64958171D01*
X144601189Y-64958171D02*
X144553570Y-65053409D01*
X144553570Y-65053409D02*
X144553570Y-65577219D01*
X143648808Y-65577219D02*
X143648808Y-65053409D01*
X143648808Y-65053409D02*
X143696427Y-64958171D01*
X143696427Y-64958171D02*
X143791665Y-64910552D01*
X143791665Y-64910552D02*
X143982141Y-64910552D01*
X143982141Y-64910552D02*
X144077379Y-64958171D01*
X143648808Y-65529600D02*
X143744046Y-65577219D01*
X143744046Y-65577219D02*
X143982141Y-65577219D01*
X143982141Y-65577219D02*
X144077379Y-65529600D01*
X144077379Y-65529600D02*
X144124998Y-65434361D01*
X144124998Y-65434361D02*
X144124998Y-65339123D01*
X144124998Y-65339123D02*
X144077379Y-65243885D01*
X144077379Y-65243885D02*
X143982141Y-65196266D01*
X143982141Y-65196266D02*
X143744046Y-65196266D01*
X143744046Y-65196266D02*
X143648808Y-65148647D01*
X143172617Y-64910552D02*
X143172617Y-65910552D01*
X143172617Y-64958171D02*
X143077379Y-64910552D01*
X143077379Y-64910552D02*
X142886903Y-64910552D01*
X142886903Y-64910552D02*
X142791665Y-64958171D01*
X142791665Y-64958171D02*
X142744046Y-65005790D01*
X142744046Y-65005790D02*
X142696427Y-65101028D01*
X142696427Y-65101028D02*
X142696427Y-65386742D01*
X142696427Y-65386742D02*
X142744046Y-65481980D01*
X142744046Y-65481980D02*
X142791665Y-65529600D01*
X142791665Y-65529600D02*
X142886903Y-65577219D01*
X142886903Y-65577219D02*
X143077379Y-65577219D01*
X143077379Y-65577219D02*
X143172617Y-65529600D01*
X142267855Y-65577219D02*
X142267855Y-64910552D01*
X142267855Y-64577219D02*
X142315474Y-64624838D01*
X142315474Y-64624838D02*
X142267855Y-64672457D01*
X142267855Y-64672457D02*
X142220236Y-64624838D01*
X142220236Y-64624838D02*
X142267855Y-64577219D01*
X142267855Y-64577219D02*
X142267855Y-64672457D01*
X141791665Y-65577219D02*
X141791665Y-64577219D01*
X141696427Y-65196266D02*
X141410713Y-65577219D01*
X141410713Y-64910552D02*
X141791665Y-65291504D01*
X142101070Y-88410714D02*
X143101070Y-88767857D01*
X143101070Y-88767857D02*
X142101070Y-89125000D01*
X143101070Y-90339286D02*
X142315356Y-90339286D01*
X142315356Y-90339286D02*
X142172499Y-90267857D01*
X142172499Y-90267857D02*
X142101070Y-90125000D01*
X142101070Y-90125000D02*
X142101070Y-89839286D01*
X142101070Y-89839286D02*
X142172499Y-89696428D01*
X143029642Y-90339286D02*
X143101070Y-90196428D01*
X143101070Y-90196428D02*
X143101070Y-89839286D01*
X143101070Y-89839286D02*
X143029642Y-89696428D01*
X143029642Y-89696428D02*
X142886784Y-89625000D01*
X142886784Y-89625000D02*
X142743927Y-89625000D01*
X142743927Y-89625000D02*
X142601070Y-89696428D01*
X142601070Y-89696428D02*
X142529642Y-89839286D01*
X142529642Y-89839286D02*
X142529642Y-90196428D01*
X142529642Y-90196428D02*
X142458213Y-90339286D01*
X143101070Y-91267857D02*
X143029642Y-91125000D01*
X143029642Y-91125000D02*
X142886784Y-91053571D01*
X142886784Y-91053571D02*
X141601070Y-91053571D01*
X143029642Y-92410714D02*
X143101070Y-92267857D01*
X143101070Y-92267857D02*
X143101070Y-91982143D01*
X143101070Y-91982143D02*
X143029642Y-91839285D01*
X143029642Y-91839285D02*
X142886784Y-91767857D01*
X142886784Y-91767857D02*
X142315356Y-91767857D01*
X142315356Y-91767857D02*
X142172499Y-91839285D01*
X142172499Y-91839285D02*
X142101070Y-91982143D01*
X142101070Y-91982143D02*
X142101070Y-92267857D01*
X142101070Y-92267857D02*
X142172499Y-92410714D01*
X142172499Y-92410714D02*
X142315356Y-92482143D01*
X142315356Y-92482143D02*
X142458213Y-92482143D01*
X142458213Y-92482143D02*
X142601070Y-91767857D01*
X142101070Y-92910714D02*
X142101070Y-93482142D01*
X141601070Y-93124999D02*
X142886784Y-93124999D01*
X142886784Y-93124999D02*
X143029642Y-93196428D01*
X143029642Y-93196428D02*
X143101070Y-93339285D01*
X143101070Y-93339285D02*
X143101070Y-93482142D01*
X142101070Y-94625000D02*
X143101070Y-94625000D01*
X142101070Y-93982142D02*
X142886784Y-93982142D01*
X142886784Y-93982142D02*
X143029642Y-94053571D01*
X143029642Y-94053571D02*
X143101070Y-94196428D01*
X143101070Y-94196428D02*
X143101070Y-94410714D01*
X143101070Y-94410714D02*
X143029642Y-94553571D01*
X143029642Y-94553571D02*
X142958213Y-94625000D01*
X143101070Y-95982143D02*
X141601070Y-95982143D01*
X143029642Y-95982143D02*
X143101070Y-95839285D01*
X143101070Y-95839285D02*
X143101070Y-95553571D01*
X143101070Y-95553571D02*
X143029642Y-95410714D01*
X143029642Y-95410714D02*
X142958213Y-95339285D01*
X142958213Y-95339285D02*
X142815356Y-95267857D01*
X142815356Y-95267857D02*
X142386784Y-95267857D01*
X142386784Y-95267857D02*
X142243927Y-95339285D01*
X142243927Y-95339285D02*
X142172499Y-95410714D01*
X142172499Y-95410714D02*
X142101070Y-95553571D01*
X142101070Y-95553571D02*
X142101070Y-95839285D01*
X142101070Y-95839285D02*
X142172499Y-95982143D01*
X143101070Y-96910714D02*
X143029642Y-96767857D01*
X143029642Y-96767857D02*
X142958213Y-96696428D01*
X142958213Y-96696428D02*
X142815356Y-96625000D01*
X142815356Y-96625000D02*
X142386784Y-96625000D01*
X142386784Y-96625000D02*
X142243927Y-96696428D01*
X142243927Y-96696428D02*
X142172499Y-96767857D01*
X142172499Y-96767857D02*
X142101070Y-96910714D01*
X142101070Y-96910714D02*
X142101070Y-97125000D01*
X142101070Y-97125000D02*
X142172499Y-97267857D01*
X142172499Y-97267857D02*
X142243927Y-97339286D01*
X142243927Y-97339286D02*
X142386784Y-97410714D01*
X142386784Y-97410714D02*
X142815356Y-97410714D01*
X142815356Y-97410714D02*
X142958213Y-97339286D01*
X142958213Y-97339286D02*
X143029642Y-97267857D01*
X143029642Y-97267857D02*
X143101070Y-97125000D01*
X143101070Y-97125000D02*
X143101070Y-96910714D01*
X142958213Y-98053571D02*
X143029642Y-98125000D01*
X143029642Y-98125000D02*
X143101070Y-98053571D01*
X143101070Y-98053571D02*
X143029642Y-97982143D01*
X143029642Y-97982143D02*
X142958213Y-98053571D01*
X142958213Y-98053571D02*
X143101070Y-98053571D01*
X143029642Y-99410715D02*
X143101070Y-99267857D01*
X143101070Y-99267857D02*
X143101070Y-98982143D01*
X143101070Y-98982143D02*
X143029642Y-98839286D01*
X143029642Y-98839286D02*
X142958213Y-98767857D01*
X142958213Y-98767857D02*
X142815356Y-98696429D01*
X142815356Y-98696429D02*
X142386784Y-98696429D01*
X142386784Y-98696429D02*
X142243927Y-98767857D01*
X142243927Y-98767857D02*
X142172499Y-98839286D01*
X142172499Y-98839286D02*
X142101070Y-98982143D01*
X142101070Y-98982143D02*
X142101070Y-99267857D01*
X142101070Y-99267857D02*
X142172499Y-99410715D01*
X143101070Y-100267857D02*
X143029642Y-100125000D01*
X143029642Y-100125000D02*
X142886784Y-100053571D01*
X142886784Y-100053571D02*
X141601070Y-100053571D01*
X143101070Y-101053571D02*
X143029642Y-100910714D01*
X143029642Y-100910714D02*
X142958213Y-100839285D01*
X142958213Y-100839285D02*
X142815356Y-100767857D01*
X142815356Y-100767857D02*
X142386784Y-100767857D01*
X142386784Y-100767857D02*
X142243927Y-100839285D01*
X142243927Y-100839285D02*
X142172499Y-100910714D01*
X142172499Y-100910714D02*
X142101070Y-101053571D01*
X142101070Y-101053571D02*
X142101070Y-101267857D01*
X142101070Y-101267857D02*
X142172499Y-101410714D01*
X142172499Y-101410714D02*
X142243927Y-101482143D01*
X142243927Y-101482143D02*
X142386784Y-101553571D01*
X142386784Y-101553571D02*
X142815356Y-101553571D01*
X142815356Y-101553571D02*
X142958213Y-101482143D01*
X142958213Y-101482143D02*
X143029642Y-101410714D01*
X143029642Y-101410714D02*
X143101070Y-101267857D01*
X143101070Y-101267857D02*
X143101070Y-101053571D01*
X142101070Y-102839286D02*
X143101070Y-102839286D01*
X142101070Y-102196428D02*
X142886784Y-102196428D01*
X142886784Y-102196428D02*
X143029642Y-102267857D01*
X143029642Y-102267857D02*
X143101070Y-102410714D01*
X143101070Y-102410714D02*
X143101070Y-102625000D01*
X143101070Y-102625000D02*
X143029642Y-102767857D01*
X143029642Y-102767857D02*
X142958213Y-102839286D01*
X143101070Y-104196429D02*
X141601070Y-104196429D01*
X143029642Y-104196429D02*
X143101070Y-104053571D01*
X143101070Y-104053571D02*
X143101070Y-103767857D01*
X143101070Y-103767857D02*
X143029642Y-103625000D01*
X143029642Y-103625000D02*
X142958213Y-103553571D01*
X142958213Y-103553571D02*
X142815356Y-103482143D01*
X142815356Y-103482143D02*
X142386784Y-103482143D01*
X142386784Y-103482143D02*
X142243927Y-103553571D01*
X142243927Y-103553571D02*
X142172499Y-103625000D01*
X142172499Y-103625000D02*
X142101070Y-103767857D01*
X142101070Y-103767857D02*
X142101070Y-104053571D01*
X142101070Y-104053571D02*
X142172499Y-104196429D01*
X145515986Y-88660714D02*
X144015986Y-88660714D01*
X145444558Y-88660714D02*
X145515986Y-88517856D01*
X145515986Y-88517856D02*
X145515986Y-88232142D01*
X145515986Y-88232142D02*
X145444558Y-88089285D01*
X145444558Y-88089285D02*
X145373129Y-88017856D01*
X145373129Y-88017856D02*
X145230272Y-87946428D01*
X145230272Y-87946428D02*
X144801700Y-87946428D01*
X144801700Y-87946428D02*
X144658843Y-88017856D01*
X144658843Y-88017856D02*
X144587415Y-88089285D01*
X144587415Y-88089285D02*
X144515986Y-88232142D01*
X144515986Y-88232142D02*
X144515986Y-88517856D01*
X144515986Y-88517856D02*
X144587415Y-88660714D01*
X145515986Y-89589285D02*
X145444558Y-89446428D01*
X145444558Y-89446428D02*
X145373129Y-89374999D01*
X145373129Y-89374999D02*
X145230272Y-89303571D01*
X145230272Y-89303571D02*
X144801700Y-89303571D01*
X144801700Y-89303571D02*
X144658843Y-89374999D01*
X144658843Y-89374999D02*
X144587415Y-89446428D01*
X144587415Y-89446428D02*
X144515986Y-89589285D01*
X144515986Y-89589285D02*
X144515986Y-89803571D01*
X144515986Y-89803571D02*
X144587415Y-89946428D01*
X144587415Y-89946428D02*
X144658843Y-90017857D01*
X144658843Y-90017857D02*
X144801700Y-90089285D01*
X144801700Y-90089285D02*
X145230272Y-90089285D01*
X145230272Y-90089285D02*
X145373129Y-90017857D01*
X145373129Y-90017857D02*
X145444558Y-89946428D01*
X145444558Y-89946428D02*
X145515986Y-89803571D01*
X145515986Y-89803571D02*
X145515986Y-89589285D01*
X144515986Y-90732142D02*
X145515986Y-90732142D01*
X144658843Y-90732142D02*
X144587415Y-90803571D01*
X144587415Y-90803571D02*
X144515986Y-90946428D01*
X144515986Y-90946428D02*
X144515986Y-91160714D01*
X144515986Y-91160714D02*
X144587415Y-91303571D01*
X144587415Y-91303571D02*
X144730272Y-91375000D01*
X144730272Y-91375000D02*
X145515986Y-91375000D01*
X144515986Y-91875000D02*
X144515986Y-92446428D01*
X144015986Y-92089285D02*
X145301700Y-92089285D01*
X145301700Y-92089285D02*
X145444558Y-92160714D01*
X145444558Y-92160714D02*
X145515986Y-92303571D01*
X145515986Y-92303571D02*
X145515986Y-92446428D01*
X144515986Y-92803571D02*
X145515986Y-93160714D01*
X145515986Y-93160714D02*
X144515986Y-93517857D01*
X145515986Y-94732143D02*
X144730272Y-94732143D01*
X144730272Y-94732143D02*
X144587415Y-94660714D01*
X144587415Y-94660714D02*
X144515986Y-94517857D01*
X144515986Y-94517857D02*
X144515986Y-94232143D01*
X144515986Y-94232143D02*
X144587415Y-94089285D01*
X145444558Y-94732143D02*
X145515986Y-94589285D01*
X145515986Y-94589285D02*
X145515986Y-94232143D01*
X145515986Y-94232143D02*
X145444558Y-94089285D01*
X145444558Y-94089285D02*
X145301700Y-94017857D01*
X145301700Y-94017857D02*
X145158843Y-94017857D01*
X145158843Y-94017857D02*
X145015986Y-94089285D01*
X145015986Y-94089285D02*
X144944558Y-94232143D01*
X144944558Y-94232143D02*
X144944558Y-94589285D01*
X144944558Y-94589285D02*
X144873129Y-94732143D01*
X145444558Y-96089286D02*
X145515986Y-95946428D01*
X145515986Y-95946428D02*
X145515986Y-95660714D01*
X145515986Y-95660714D02*
X145444558Y-95517857D01*
X145444558Y-95517857D02*
X145373129Y-95446428D01*
X145373129Y-95446428D02*
X145230272Y-95375000D01*
X145230272Y-95375000D02*
X144801700Y-95375000D01*
X144801700Y-95375000D02*
X144658843Y-95446428D01*
X144658843Y-95446428D02*
X144587415Y-95517857D01*
X144587415Y-95517857D02*
X144515986Y-95660714D01*
X144515986Y-95660714D02*
X144515986Y-95946428D01*
X144515986Y-95946428D02*
X144587415Y-96089286D01*
X144515986Y-97375000D02*
X145515986Y-97375000D01*
X144515986Y-96732142D02*
X145301700Y-96732142D01*
X145301700Y-96732142D02*
X145444558Y-96803571D01*
X145444558Y-96803571D02*
X145515986Y-96946428D01*
X145515986Y-96946428D02*
X145515986Y-97160714D01*
X145515986Y-97160714D02*
X145444558Y-97303571D01*
X145444558Y-97303571D02*
X145373129Y-97375000D01*
X144515986Y-98732143D02*
X145515986Y-98732143D01*
X144515986Y-98089285D02*
X145301700Y-98089285D01*
X145301700Y-98089285D02*
X145444558Y-98160714D01*
X145444558Y-98160714D02*
X145515986Y-98303571D01*
X145515986Y-98303571D02*
X145515986Y-98517857D01*
X145515986Y-98517857D02*
X145444558Y-98660714D01*
X145444558Y-98660714D02*
X145373129Y-98732143D01*
X145515986Y-99446428D02*
X144515986Y-99446428D01*
X144658843Y-99446428D02*
X144587415Y-99517857D01*
X144587415Y-99517857D02*
X144515986Y-99660714D01*
X144515986Y-99660714D02*
X144515986Y-99875000D01*
X144515986Y-99875000D02*
X144587415Y-100017857D01*
X144587415Y-100017857D02*
X144730272Y-100089286D01*
X144730272Y-100089286D02*
X145515986Y-100089286D01*
X144730272Y-100089286D02*
X144587415Y-100160714D01*
X144587415Y-100160714D02*
X144515986Y-100303571D01*
X144515986Y-100303571D02*
X144515986Y-100517857D01*
X144515986Y-100517857D02*
X144587415Y-100660714D01*
X144587415Y-100660714D02*
X144730272Y-100732143D01*
X144730272Y-100732143D02*
X145515986Y-100732143D01*
X145373129Y-101446428D02*
X145444558Y-101517857D01*
X145444558Y-101517857D02*
X145515986Y-101446428D01*
X145515986Y-101446428D02*
X145444558Y-101375000D01*
X145444558Y-101375000D02*
X145373129Y-101446428D01*
X145373129Y-101446428D02*
X145515986Y-101446428D01*
X145515986Y-102160714D02*
X144515986Y-102160714D01*
X144658843Y-102160714D02*
X144587415Y-102232143D01*
X144587415Y-102232143D02*
X144515986Y-102375000D01*
X144515986Y-102375000D02*
X144515986Y-102589286D01*
X144515986Y-102589286D02*
X144587415Y-102732143D01*
X144587415Y-102732143D02*
X144730272Y-102803572D01*
X144730272Y-102803572D02*
X145515986Y-102803572D01*
X144730272Y-102803572D02*
X144587415Y-102875000D01*
X144587415Y-102875000D02*
X144515986Y-103017857D01*
X144515986Y-103017857D02*
X144515986Y-103232143D01*
X144515986Y-103232143D02*
X144587415Y-103375000D01*
X144587415Y-103375000D02*
X144730272Y-103446429D01*
X144730272Y-103446429D02*
X145515986Y-103446429D01*
X145444558Y-104732143D02*
X145515986Y-104589286D01*
X145515986Y-104589286D02*
X145515986Y-104303572D01*
X145515986Y-104303572D02*
X145444558Y-104160714D01*
X145444558Y-104160714D02*
X145301700Y-104089286D01*
X145301700Y-104089286D02*
X144730272Y-104089286D01*
X144730272Y-104089286D02*
X144587415Y-104160714D01*
X144587415Y-104160714D02*
X144515986Y-104303572D01*
X144515986Y-104303572D02*
X144515986Y-104589286D01*
X144515986Y-104589286D02*
X144587415Y-104732143D01*
X144587415Y-104732143D02*
X144730272Y-104803572D01*
X144730272Y-104803572D02*
X144873129Y-104803572D01*
X144873129Y-104803572D02*
X145015986Y-104089286D01*
D10*
X150089285Y-112385950D02*
X149910714Y-112445473D01*
X149910714Y-112445473D02*
X149613095Y-112445473D01*
X149613095Y-112445473D02*
X149494047Y-112385950D01*
X149494047Y-112385950D02*
X149434523Y-112326426D01*
X149434523Y-112326426D02*
X149375000Y-112207378D01*
X149375000Y-112207378D02*
X149375000Y-112088330D01*
X149375000Y-112088330D02*
X149434523Y-111969283D01*
X149434523Y-111969283D02*
X149494047Y-111909759D01*
X149494047Y-111909759D02*
X149613095Y-111850235D01*
X149613095Y-111850235D02*
X149851190Y-111790711D01*
X149851190Y-111790711D02*
X149970238Y-111731188D01*
X149970238Y-111731188D02*
X150029761Y-111671664D01*
X150029761Y-111671664D02*
X150089285Y-111552616D01*
X150089285Y-111552616D02*
X150089285Y-111433569D01*
X150089285Y-111433569D02*
X150029761Y-111314521D01*
X150029761Y-111314521D02*
X149970238Y-111254997D01*
X149970238Y-111254997D02*
X149851190Y-111195473D01*
X149851190Y-111195473D02*
X149553571Y-111195473D01*
X149553571Y-111195473D02*
X149375000Y-111254997D01*
X148363095Y-112385950D02*
X148482143Y-112445473D01*
X148482143Y-112445473D02*
X148720238Y-112445473D01*
X148720238Y-112445473D02*
X148839285Y-112385950D01*
X148839285Y-112385950D02*
X148898809Y-112266902D01*
X148898809Y-112266902D02*
X148898809Y-111790711D01*
X148898809Y-111790711D02*
X148839285Y-111671664D01*
X148839285Y-111671664D02*
X148720238Y-111612140D01*
X148720238Y-111612140D02*
X148482143Y-111612140D01*
X148482143Y-111612140D02*
X148363095Y-111671664D01*
X148363095Y-111671664D02*
X148303571Y-111790711D01*
X148303571Y-111790711D02*
X148303571Y-111909759D01*
X148303571Y-111909759D02*
X148898809Y-112028807D01*
X147767856Y-112445473D02*
X147767856Y-111612140D01*
X147767856Y-111850235D02*
X147708333Y-111731188D01*
X147708333Y-111731188D02*
X147648809Y-111671664D01*
X147648809Y-111671664D02*
X147529761Y-111612140D01*
X147529761Y-111612140D02*
X147410714Y-111612140D01*
X146994046Y-112445473D02*
X146994046Y-111612140D01*
X146994046Y-111195473D02*
X147053570Y-111254997D01*
X147053570Y-111254997D02*
X146994046Y-111314521D01*
X146994046Y-111314521D02*
X146934523Y-111254997D01*
X146934523Y-111254997D02*
X146994046Y-111195473D01*
X146994046Y-111195473D02*
X146994046Y-111314521D01*
X145863094Y-112445473D02*
X145863094Y-111790711D01*
X145863094Y-111790711D02*
X145922618Y-111671664D01*
X145922618Y-111671664D02*
X146041666Y-111612140D01*
X146041666Y-111612140D02*
X146279761Y-111612140D01*
X146279761Y-111612140D02*
X146398808Y-111671664D01*
X145863094Y-112385950D02*
X145982142Y-112445473D01*
X145982142Y-112445473D02*
X146279761Y-112445473D01*
X146279761Y-112445473D02*
X146398808Y-112385950D01*
X146398808Y-112385950D02*
X146458332Y-112266902D01*
X146458332Y-112266902D02*
X146458332Y-112147854D01*
X146458332Y-112147854D02*
X146398808Y-112028807D01*
X146398808Y-112028807D02*
X146279761Y-111969283D01*
X146279761Y-111969283D02*
X145982142Y-111969283D01*
X145982142Y-111969283D02*
X145863094Y-111909759D01*
X145089285Y-112445473D02*
X145208333Y-112385950D01*
X145208333Y-112385950D02*
X145267856Y-112266902D01*
X145267856Y-112266902D02*
X145267856Y-111195473D01*
X143660713Y-112445473D02*
X143660713Y-111195473D01*
X143660713Y-111195473D02*
X142946428Y-112445473D01*
X142946428Y-112445473D02*
X142946428Y-111195473D01*
X142172618Y-112445473D02*
X142291666Y-112385950D01*
X142291666Y-112385950D02*
X142351189Y-112326426D01*
X142351189Y-112326426D02*
X142410713Y-112207378D01*
X142410713Y-112207378D02*
X142410713Y-111850235D01*
X142410713Y-111850235D02*
X142351189Y-111731188D01*
X142351189Y-111731188D02*
X142291666Y-111671664D01*
X142291666Y-111671664D02*
X142172618Y-111612140D01*
X142172618Y-111612140D02*
X141994047Y-111612140D01*
X141994047Y-111612140D02*
X141874999Y-111671664D01*
X141874999Y-111671664D02*
X141815475Y-111731188D01*
X141815475Y-111731188D02*
X141755951Y-111850235D01*
X141755951Y-111850235D02*
X141755951Y-112207378D01*
X141755951Y-112207378D02*
X141815475Y-112326426D01*
X141815475Y-112326426D02*
X141874999Y-112385950D01*
X141874999Y-112385950D02*
X141994047Y-112445473D01*
X141994047Y-112445473D02*
X142172618Y-112445473D01*
X141220237Y-112326426D02*
X141160714Y-112385950D01*
X141160714Y-112385950D02*
X141220237Y-112445473D01*
X141220237Y-112445473D02*
X141279761Y-112385950D01*
X141279761Y-112385950D02*
X141220237Y-112326426D01*
X141220237Y-112326426D02*
X141220237Y-112445473D01*
X147774847Y-94527381D02*
X147298656Y-94260714D01*
X147774847Y-94070238D02*
X146774847Y-94070238D01*
X146774847Y-94070238D02*
X146774847Y-94375000D01*
X146774847Y-94375000D02*
X146822466Y-94451190D01*
X146822466Y-94451190D02*
X146870085Y-94489285D01*
X146870085Y-94489285D02*
X146965323Y-94527381D01*
X146965323Y-94527381D02*
X147108180Y-94527381D01*
X147108180Y-94527381D02*
X147203418Y-94489285D01*
X147203418Y-94489285D02*
X147251037Y-94451190D01*
X147251037Y-94451190D02*
X147298656Y-94375000D01*
X147298656Y-94375000D02*
X147298656Y-94070238D01*
X147727228Y-95175000D02*
X147774847Y-95098809D01*
X147774847Y-95098809D02*
X147774847Y-94946428D01*
X147774847Y-94946428D02*
X147727228Y-94870238D01*
X147727228Y-94870238D02*
X147631989Y-94832142D01*
X147631989Y-94832142D02*
X147251037Y-94832142D01*
X147251037Y-94832142D02*
X147155799Y-94870238D01*
X147155799Y-94870238D02*
X147108180Y-94946428D01*
X147108180Y-94946428D02*
X147108180Y-95098809D01*
X147108180Y-95098809D02*
X147155799Y-95175000D01*
X147155799Y-95175000D02*
X147251037Y-95213095D01*
X147251037Y-95213095D02*
X147346275Y-95213095D01*
X147346275Y-95213095D02*
X147441513Y-94832142D01*
X147108180Y-95479761D02*
X147774847Y-95670237D01*
X147774847Y-95670237D02*
X147108180Y-95860714D01*
X147679608Y-96165476D02*
X147727228Y-96203571D01*
X147727228Y-96203571D02*
X147774847Y-96165476D01*
X147774847Y-96165476D02*
X147727228Y-96127380D01*
X147727228Y-96127380D02*
X147679608Y-96165476D01*
X147679608Y-96165476D02*
X147774847Y-96165476D01*
X147774847Y-97574999D02*
X147774847Y-97117856D01*
X147774847Y-97346428D02*
X146774847Y-97346428D01*
X146774847Y-97346428D02*
X146917704Y-97270237D01*
X146917704Y-97270237D02*
X147012942Y-97194047D01*
X147012942Y-97194047D02*
X147060561Y-97117856D01*
X147679608Y-97917857D02*
X147727228Y-97955952D01*
X147727228Y-97955952D02*
X147774847Y-97917857D01*
X147774847Y-97917857D02*
X147727228Y-97879761D01*
X147727228Y-97879761D02*
X147679608Y-97917857D01*
X147679608Y-97917857D02*
X147774847Y-97917857D01*
X147774847Y-98717856D02*
X147774847Y-98260713D01*
X147774847Y-98489285D02*
X146774847Y-98489285D01*
X146774847Y-98489285D02*
X146917704Y-98413094D01*
X146917704Y-98413094D02*
X147012942Y-98336904D01*
X147012942Y-98336904D02*
X147060561Y-98260713D01*
X148480029Y-92489284D02*
X148432410Y-92527380D01*
X148432410Y-92527380D02*
X148384791Y-92603570D01*
X148384791Y-92603570D02*
X148384791Y-92794046D01*
X148384791Y-92794046D02*
X148432410Y-92870237D01*
X148432410Y-92870237D02*
X148480029Y-92908332D01*
X148480029Y-92908332D02*
X148575267Y-92946427D01*
X148575267Y-92946427D02*
X148670505Y-92946427D01*
X148670505Y-92946427D02*
X148813362Y-92908332D01*
X148813362Y-92908332D02*
X149384791Y-92451189D01*
X149384791Y-92451189D02*
X149384791Y-92946427D01*
X148384791Y-93441666D02*
X148384791Y-93517856D01*
X148384791Y-93517856D02*
X148432410Y-93594047D01*
X148432410Y-93594047D02*
X148480029Y-93632142D01*
X148480029Y-93632142D02*
X148575267Y-93670237D01*
X148575267Y-93670237D02*
X148765743Y-93708332D01*
X148765743Y-93708332D02*
X149003838Y-93708332D01*
X149003838Y-93708332D02*
X149194314Y-93670237D01*
X149194314Y-93670237D02*
X149289552Y-93632142D01*
X149289552Y-93632142D02*
X149337172Y-93594047D01*
X149337172Y-93594047D02*
X149384791Y-93517856D01*
X149384791Y-93517856D02*
X149384791Y-93441666D01*
X149384791Y-93441666D02*
X149337172Y-93365475D01*
X149337172Y-93365475D02*
X149289552Y-93327380D01*
X149289552Y-93327380D02*
X149194314Y-93289285D01*
X149194314Y-93289285D02*
X149003838Y-93251189D01*
X149003838Y-93251189D02*
X148765743Y-93251189D01*
X148765743Y-93251189D02*
X148575267Y-93289285D01*
X148575267Y-93289285D02*
X148480029Y-93327380D01*
X148480029Y-93327380D02*
X148432410Y-93365475D01*
X148432410Y-93365475D02*
X148384791Y-93441666D01*
X148480029Y-94013094D02*
X148432410Y-94051190D01*
X148432410Y-94051190D02*
X148384791Y-94127380D01*
X148384791Y-94127380D02*
X148384791Y-94317856D01*
X148384791Y-94317856D02*
X148432410Y-94394047D01*
X148432410Y-94394047D02*
X148480029Y-94432142D01*
X148480029Y-94432142D02*
X148575267Y-94470237D01*
X148575267Y-94470237D02*
X148670505Y-94470237D01*
X148670505Y-94470237D02*
X148813362Y-94432142D01*
X148813362Y-94432142D02*
X149384791Y-93974999D01*
X149384791Y-93974999D02*
X149384791Y-94470237D01*
X148384791Y-95194047D02*
X148384791Y-94813095D01*
X148384791Y-94813095D02*
X148860981Y-94774999D01*
X148860981Y-94774999D02*
X148813362Y-94813095D01*
X148813362Y-94813095D02*
X148765743Y-94889285D01*
X148765743Y-94889285D02*
X148765743Y-95079761D01*
X148765743Y-95079761D02*
X148813362Y-95155952D01*
X148813362Y-95155952D02*
X148860981Y-95194047D01*
X148860981Y-95194047D02*
X148956219Y-95232142D01*
X148956219Y-95232142D02*
X149194314Y-95232142D01*
X149194314Y-95232142D02*
X149289552Y-95194047D01*
X149289552Y-95194047D02*
X149337172Y-95155952D01*
X149337172Y-95155952D02*
X149384791Y-95079761D01*
X149384791Y-95079761D02*
X149384791Y-94889285D01*
X149384791Y-94889285D02*
X149337172Y-94813095D01*
X149337172Y-94813095D02*
X149289552Y-94774999D01*
X149003838Y-95575000D02*
X149003838Y-96184524D01*
X149384791Y-96984523D02*
X149384791Y-96527380D01*
X149384791Y-96755952D02*
X148384791Y-96755952D01*
X148384791Y-96755952D02*
X148527648Y-96679761D01*
X148527648Y-96679761D02*
X148622886Y-96603571D01*
X148622886Y-96603571D02*
X148670505Y-96527380D01*
X148480029Y-97289285D02*
X148432410Y-97327381D01*
X148432410Y-97327381D02*
X148384791Y-97403571D01*
X148384791Y-97403571D02*
X148384791Y-97594047D01*
X148384791Y-97594047D02*
X148432410Y-97670238D01*
X148432410Y-97670238D02*
X148480029Y-97708333D01*
X148480029Y-97708333D02*
X148575267Y-97746428D01*
X148575267Y-97746428D02*
X148670505Y-97746428D01*
X148670505Y-97746428D02*
X148813362Y-97708333D01*
X148813362Y-97708333D02*
X149384791Y-97251190D01*
X149384791Y-97251190D02*
X149384791Y-97746428D01*
X149003838Y-98089286D02*
X149003838Y-98698810D01*
X149384791Y-99498809D02*
X149384791Y-99041666D01*
X149384791Y-99270238D02*
X148384791Y-99270238D01*
X148384791Y-99270238D02*
X148527648Y-99194047D01*
X148527648Y-99194047D02*
X148622886Y-99117857D01*
X148622886Y-99117857D02*
X148670505Y-99041666D01*
X149384791Y-100260714D02*
X149384791Y-99803571D01*
X149384791Y-100032143D02*
X148384791Y-100032143D01*
X148384791Y-100032143D02*
X148527648Y-99955952D01*
X148527648Y-99955952D02*
X148622886Y-99879762D01*
X148622886Y-99879762D02*
X148670505Y-99803571D01*
M02*
